<svg width="22" height="22" viewBox="0 0 22 22" fill="none" xmlns="http://www.w3.org/2000/svg">
<path fill-rule="evenodd" clip-rule="evenodd" d="M1.71973 10.9999C1.71973 10.8241 1.78957 10.6555 1.91389 10.5312C2.03821 10.4069 2.20682 10.337 2.38264 10.337L18.0181 10.337L13.8457 6.16596C13.7213 6.04149 13.6513 5.87266 13.6513 5.69662C13.6513 5.52058 13.7213 5.35176 13.8457 5.22728C13.9702 5.1028 14.139 5.03287 14.3151 5.03287C14.4911 5.03287 14.6599 5.1028 14.7844 5.22728L20.0877 10.5306C20.1495 10.5922 20.1984 10.6653 20.2319 10.7459C20.2653 10.8264 20.2825 10.9127 20.2825 10.9999C20.2825 11.0871 20.2653 11.1735 20.2319 11.254C20.1984 11.3345 20.1495 11.4077 20.0877 11.4693L14.7844 16.7726C14.6599 16.897 14.4911 16.967 14.3151 16.967C14.139 16.967 13.9702 16.897 13.8457 16.7726C13.7213 16.6481 13.6513 16.4793 13.6513 16.3032C13.6513 16.1272 13.7213 15.9584 13.8457 15.8339L18.0181 11.6628L2.38264 11.6628C2.20682 11.6628 2.03821 11.593 1.91389 11.4687C1.78957 11.3444 1.71973 11.1757 1.71973 10.9999Z" fill="white"/>
</svg>
