<svg width="28" height="28" viewBox="0 0 28 28" fill="none" xmlns="http://www.w3.org/2000/svg">
<path d="M15.2684 4.21099C15.1974 4.1427 15.1137 4.08907 15.022 4.05314C14.9303 4.01721 14.8324 3.9997 14.7339 4.0016C14.535 4.00545 14.3458 4.08814 14.2079 4.23149C14.07 4.37484 13.9947 4.5671 13.9985 4.76599C14.0024 4.96487 14.0851 5.15408 14.2284 5.29199L22.5034 13.252L3.75041 13.252C3.5515 13.252 3.36073 13.331 3.22008 13.4717C3.07943 13.6123 3.00041 13.8031 3.00041 14.002C3.00041 14.2009 3.07943 14.3917 3.22008 14.5323C3.36073 14.673 3.5515 14.752 3.75041 14.752L22.5014 14.752L14.2274 22.71C14.1564 22.7783 14.0996 22.8599 14.0601 22.9501C14.0207 23.0404 13.9994 23.1375 13.9975 23.236C13.9956 23.3345 14.0131 23.4324 14.0491 23.5241C14.085 23.6158 14.1386 23.6995 14.2069 23.7705C14.2752 23.8415 14.3568 23.8983 14.447 23.9377C14.5373 23.9772 14.6344 23.9985 14.7329 24.0004C14.8314 24.0023 14.9293 23.9848 15.021 23.9488C15.1127 23.9129 15.1964 23.8593 15.2674 23.791L24.6954 14.722C24.7923 14.6287 24.8695 14.5168 24.9221 14.393C24.9748 14.2692 25.002 14.136 25.002 14.0015C25.002 13.867 24.9748 13.7338 24.9221 13.61C24.8695 13.4862 24.7923 13.3743 24.6954 13.281L15.2684 4.21099Z" fill="black"/>
</svg>
