<svg width="32" height="32" viewBox="0 0 32 32" fill="none" xmlns="http://www.w3.org/2000/svg">
<path d="M10.6521 6.00409L20.3961 16.0001L10.6521 25.9961C10.4776 26.1747 10.3799 26.4144 10.3799 26.6641C10.3799 26.9138 10.4776 27.1535 10.6521 27.3321C10.7368 27.4186 10.8379 27.4873 10.9495 27.5342C11.0611 27.5811 11.181 27.6052 11.3021 27.6052C11.4231 27.6052 11.543 27.5811 11.6546 27.5342C11.7662 27.4873 11.8673 27.4186 11.9521 27.3321L22.3201 16.6981C22.5021 16.5113 22.604 16.2609 22.604 16.0001C22.604 15.7393 22.5021 15.4888 22.3201 15.3021L11.9541 4.66809C11.8693 4.581 11.7679 4.51179 11.6559 4.46452C11.5439 4.41726 11.4236 4.39291 11.3021 4.39291C11.1805 4.39291 11.0602 4.41726 10.9482 4.46452C10.8362 4.51179 10.7349 4.581 10.6501 4.66809C10.4756 4.84668 10.3779 5.08643 10.3779 5.33609C10.3779 5.58575 10.4756 5.8255 10.6501 6.00409L10.6521 6.00409Z" fill="black"/>
</svg>
