<svg width="23" height="22" viewBox="0 0 23 22" fill="none" xmlns="http://www.w3.org/2000/svg">
<path fill-rule="evenodd" clip-rule="evenodd" d="M2.21973 11C2.21973 10.8242 2.28957 10.6556 2.41389 10.5312C2.53821 10.4069 2.70682 10.3371 2.88264 10.3371L18.5181 10.3371L14.3457 6.16602C14.2213 6.04155 14.1513 5.87272 14.1513 5.69668C14.1513 5.52064 14.2213 5.35182 14.3457 5.22734C14.4702 5.10286 14.639 5.03293 14.8151 5.03293C14.9911 5.03293 15.1599 5.10286 15.2844 5.22734L20.5877 10.5306C20.6495 10.5922 20.6984 10.6654 20.7319 10.7459C20.7653 10.8265 20.7825 10.9128 20.7825 11C20.7825 11.0872 20.7653 11.1735 20.7319 11.2541C20.6984 11.3346 20.6495 11.4077 20.5877 11.4693L15.2844 16.7726C15.1599 16.8971 14.9911 16.967 14.8151 16.967C14.639 16.967 14.4702 16.8971 14.3457 16.7726C14.2213 16.6482 14.1513 16.4793 14.1513 16.3033C14.1513 16.1273 14.2213 15.9584 14.3457 15.8339L18.5181 11.6629L2.88264 11.6629C2.70682 11.6629 2.53821 11.5931 2.41389 11.4687C2.28957 11.3444 2.21973 11.1758 2.21973 11Z" fill="black"/>
</svg>
