<svg width="19" height="12" viewBox="0 0 19 12" fill="none" xmlns="http://www.w3.org/2000/svg">
<path fill-rule="evenodd" clip-rule="evenodd" d="M0.219726 5.99974C0.219726 5.82393 0.289569 5.65531 0.413889 5.53099C0.538209 5.40667 0.706824 5.33683 0.882639 5.33683L16.5181 5.33683L12.3457 1.16578C12.2213 1.0413 12.1513 0.872475 12.1513 0.696438C12.1513 0.5204 12.2213 0.351572 12.3457 0.227095C12.4702 0.102618 12.639 0.0326876 12.8151 0.0326876C12.9911 0.0326876 13.1599 0.102618 13.2844 0.227095L18.5877 5.5304C18.6495 5.59198 18.6984 5.66513 18.7319 5.74567C18.7653 5.82621 18.7825 5.91255 18.7825 5.99974C18.7825 6.08694 18.7653 6.17328 18.7319 6.25381C18.6984 6.33435 18.6495 6.40751 18.5877 6.46908L13.2844 11.7724C13.1599 11.8969 12.9911 11.9668 12.8151 11.9668C12.639 11.9668 12.4702 11.8969 12.3457 11.7724C12.2213 11.6479 12.1513 11.4791 12.1513 11.303C12.1513 11.127 12.2213 10.9582 12.3457 10.8337L16.5181 6.66266L0.882639 6.66266C0.706824 6.66266 0.538209 6.59281 0.413889 6.46849C0.289569 6.34417 0.219726 6.17556 0.219726 5.99974Z" fill="black"/>
</svg>
