<svg width="32" height="33" viewBox="0 0 32 33" fill="none" xmlns="http://www.w3.org/2000/svg">
<rect x="0.15918" y="0.562988" width="31.7086" height="31.7086" rx="15.8543" fill="#FFF5DE"/>
<path d="M22.0145 23.2122C20.4416 23.2122 18.8846 22.8725 17.3435 22.193C15.8023 21.5135 14.4024 20.5447 13.1436 19.2864C11.8848 18.0281 10.9159 16.6314 10.237 15.0963C9.55801 13.5612 9.21828 12.0009 9.21777 10.4155V9.6228H13.6721L14.3704 13.4165L12.2188 15.587C12.4956 16.0778 12.8039 16.5433 13.1436 16.9837C13.4833 17.4241 13.8482 17.8331 14.2383 18.2106C14.6032 18.5755 15.0028 18.9247 15.4372 19.2584C15.8715 19.5921 16.3401 19.9034 16.8429 20.1923L19.0323 18.0029L22.8072 18.7768V23.2122H22.0145Z" fill="#F59E0B"/>
</svg>
