<svg width="342" height="121" viewBox="0 0 342 121" fill="none" xmlns="http://www.w3.org/2000/svg">
<path d="M11.7326 23.789C11.8035 23.8573 11.8873 23.9109 11.979 23.9469C12.0707 23.9828 12.1686 24.0003 12.2671 23.9984C12.4659 23.9946 12.6552 23.9119 12.7931 23.7685C12.931 23.6252 13.0063 23.4329 13.0025 23.234C12.9986 23.0351 12.9159 22.8459 12.7726 22.708L4.49757 14.748L23.2506 14.748C23.4495 14.748 23.6402 14.669 23.7809 14.5283C23.9216 14.3877 24.0006 14.1969 24.0006 13.998C24.0006 13.7991 23.9216 13.6083 23.7809 13.4677C23.6402 13.327 23.4495 13.248 23.2506 13.248L4.49957 13.248L12.7736 5.29001C12.8445 5.22172 12.9014 5.14012 12.9408 5.04987C12.9803 4.95962 13.0016 4.86248 13.0035 4.764C13.0054 4.66553 12.9878 4.56764 12.9519 4.47593C12.916 4.38422 12.8624 4.30049 12.7941 4.22951C12.7258 4.15853 12.6442 4.10169 12.5539 4.06225C12.4637 4.02281 12.3665 4.00152 12.2681 3.99962C12.1696 3.99772 12.0717 4.01523 11.98 4.05115C11.8883 4.08708 11.8045 4.14072 11.7336 4.20901L2.30557 13.278C2.20863 13.3713 2.13152 13.4832 2.07885 13.607C2.02617 13.7308 1.99902 13.864 1.99902 13.9985C1.99902 14.133 2.02617 14.2662 2.07885 14.39C2.13152 14.5138 2.20863 14.6257 2.30557 14.719L11.7326 23.789Z" fill="#1C1C1C"/>
<path d="M37.28 8.8H38.64V20H37.28V8.8ZM38.032 10.08V8.8H40.32C41.0453 8.8 41.6907 8.93867 42.256 9.216C42.832 9.48267 43.2853 9.86667 43.616 10.368C43.9573 10.8693 44.128 11.4667 44.128 12.16C44.128 12.8427 43.9573 13.44 43.616 13.952C43.2853 14.4533 42.832 14.8427 42.256 15.12C41.6907 15.3867 41.0453 15.52 40.32 15.52H38.032V14.24H40.32C41.0453 14.24 41.632 14.064 42.08 13.712C42.5387 13.36 42.768 12.8427 42.768 12.16C42.768 11.4667 42.5387 10.9493 42.08 10.608C41.632 10.256 41.0453 10.08 40.32 10.08H38.032ZM46.9331 12.64V20H45.6531V12.64H46.9331ZM49.1571 14.048C48.9865 13.92 48.8318 13.8293 48.6931 13.776C48.5545 13.712 48.3785 13.68 48.1651 13.68C47.8451 13.68 47.5945 13.76 47.4131 13.92C47.2318 14.08 47.1038 14.2987 47.0291 14.576C46.9651 14.8533 46.9331 15.168 46.9331 15.52H46.3571C46.3571 14.9333 46.4585 14.416 46.6611 13.968C46.8745 13.5093 47.1465 13.1467 47.4771 12.88C47.8078 12.6133 48.1438 12.48 48.4851 12.48C48.7518 12.48 48.9971 12.5173 49.2211 12.592C49.4558 12.656 49.6691 12.7893 49.8611 12.992L49.1571 14.048ZM53.7511 20.16C53.0685 20.16 52.4605 20 51.9271 19.68C51.4045 19.3493 50.9938 18.896 50.6951 18.32C50.4071 17.744 50.2631 17.0773 50.2631 16.32C50.2631 15.552 50.4125 14.88 50.7111 14.304C51.0205 13.728 51.4471 13.28 51.9911 12.96C52.5458 12.64 53.1858 12.48 53.9111 12.48C54.6365 12.48 55.2551 12.6347 55.7671 12.944C56.2898 13.2427 56.6898 13.6747 56.9671 14.24C57.2445 14.8053 57.3831 15.4773 57.3831 16.256C57.3831 16.3307 57.3778 16.4107 57.3671 16.496C57.3671 16.5707 57.3671 16.6187 57.3671 16.64H51.0791V15.552H56.3591L55.8471 16.288C55.8791 16.2347 55.9111 16.1547 55.9431 16.048C55.9751 15.9307 55.9911 15.8347 55.9911 15.76C55.9911 15.3227 55.9005 14.944 55.7191 14.624C55.5485 14.304 55.3085 14.0533 54.9991 13.872C54.6898 13.6907 54.3271 13.6 53.9111 13.6C53.4205 13.6 52.9991 13.7067 52.6471 13.92C52.3058 14.1227 52.0391 14.4213 51.8471 14.816C51.6658 15.2 51.5698 15.6747 51.5591 16.24C51.5591 16.816 51.6498 17.3067 51.8311 17.712C52.0125 18.1173 52.2791 18.4267 52.6311 18.64C52.9831 18.8533 53.4098 18.96 53.9111 18.96C54.4125 18.96 54.8551 18.8533 55.2391 18.64C55.6231 18.416 55.9485 18.08 56.2151 17.632L57.2551 18.288C56.8711 18.9067 56.3858 19.376 55.7991 19.696C55.2231 20.0053 54.5405 20.16 53.7511 20.16ZM57.7031 12.64H59.1431L61.2231 17.84L63.3031 12.64H64.7431L61.2231 20.56L57.7031 12.64ZM65.95 9.6C65.95 9.35467 66.0353 9.14667 66.206 8.976C66.3873 8.80533 66.5953 8.72 66.83 8.72C67.0753 8.72 67.2833 8.80533 67.454 8.976C67.6247 9.14667 67.71 9.35467 67.71 9.6C67.71 9.83467 67.6247 10.0427 67.454 10.224C67.2833 10.3947 67.0753 10.48 66.83 10.48C66.5953 10.48 66.3873 10.3947 66.206 10.224C66.0353 10.0427 65.95 9.83467 65.95 9.6ZM66.19 12.64H67.47V20H66.19V12.64ZM69.4663 16.32C69.4663 15.5733 69.6316 14.912 69.9622 14.336C70.3036 13.76 70.7623 13.3067 71.3383 12.976C71.9143 12.6453 72.5596 12.48 73.2743 12.48C73.9996 12.48 74.6449 12.6453 75.2103 12.976C75.7863 13.3067 76.2396 13.76 76.5703 14.336C76.9116 14.912 77.0823 15.5733 77.0823 16.32C77.0823 17.056 76.9116 17.7173 76.5703 18.304C76.2396 18.88 75.7863 19.3333 75.2103 19.664C74.6449 19.9947 73.9996 20.16 73.2743 20.16C72.5596 20.16 71.9143 19.9947 71.3383 19.664C70.7623 19.3333 70.3036 18.88 69.9622 18.304C69.6316 17.7173 69.4663 17.056 69.4663 16.32ZM70.7623 16.32C70.7623 16.832 70.8689 17.2853 71.0823 17.68C71.3063 18.0747 71.6049 18.3893 71.9783 18.624C72.3623 18.848 72.7943 18.96 73.2743 18.96C73.7543 18.96 74.1809 18.848 74.5543 18.624C74.9383 18.3893 75.2369 18.0747 75.4503 17.68C75.6743 17.2853 75.7863 16.832 75.7863 16.32C75.7863 15.808 75.6743 15.3547 75.4503 14.96C75.2369 14.5547 74.9383 14.24 74.5543 14.016C74.1809 13.792 73.7543 13.68 73.2743 13.68C72.7943 13.68 72.3623 13.792 71.9783 14.016C71.6049 14.24 71.3063 14.5547 71.0823 14.96C70.8689 15.3547 70.7623 15.808 70.7623 16.32ZM80.1206 17.12C80.1206 17.7067 80.254 18.16 80.5206 18.48C80.7873 18.8 81.1766 18.96 81.6886 18.96C82.062 18.96 82.3873 18.8853 82.6646 18.736C82.9526 18.576 83.1713 18.3573 83.3206 18.08C83.4806 17.8027 83.5606 17.4827 83.5606 17.12V12.64H84.8406V20H83.5606V18.848C83.3153 19.2853 83.0113 19.616 82.6486 19.84C82.286 20.0533 81.8593 20.16 81.3686 20.16C80.6006 20.16 79.9873 19.8987 79.5286 19.376C79.07 18.8533 78.8406 18.1547 78.8406 17.28V12.64H80.1206V17.12ZM87.5509 17.744C87.7002 17.968 87.8709 18.176 88.0629 18.368C88.2549 18.56 88.4735 18.7147 88.7189 18.832C88.9749 18.9387 89.2522 18.992 89.5509 18.992C89.9135 18.992 90.1962 18.912 90.3989 18.752C90.6122 18.5813 90.7189 18.352 90.7189 18.064C90.7189 17.808 90.6335 17.5947 90.4629 17.424C90.3029 17.2427 90.0949 17.0933 89.8389 16.976C89.5829 16.848 89.3109 16.7307 89.0229 16.624C88.7029 16.496 88.3775 16.3467 88.0469 16.176C87.7269 15.9947 87.4549 15.7653 87.2309 15.488C87.0175 15.2 86.9109 14.8427 86.9109 14.416C86.9109 13.9787 87.0229 13.616 87.2469 13.328C87.4815 13.04 87.7802 12.8267 88.1429 12.688C88.5162 12.5493 88.9002 12.48 89.2949 12.48C89.6895 12.48 90.0575 12.544 90.3989 12.672C90.7509 12.8 91.0602 12.9707 91.3269 13.184C91.5935 13.3973 91.8015 13.6427 91.9509 13.92L90.9269 14.576C90.7242 14.2987 90.4682 14.0693 90.1589 13.888C89.8602 13.7067 89.5189 13.616 89.1349 13.616C88.8682 13.616 88.6389 13.6747 88.4469 13.792C88.2549 13.9093 88.1589 14.0907 88.1589 14.336C88.1589 14.528 88.2335 14.6987 88.3829 14.848C88.5322 14.9973 88.7242 15.1307 88.9589 15.248C89.1935 15.3653 89.4389 15.4773 89.6949 15.584C90.1215 15.7547 90.5109 15.9413 90.8629 16.144C91.2149 16.336 91.4922 16.5707 91.6949 16.848C91.9082 17.1253 92.0149 17.4827 92.0149 17.92C92.0149 18.56 91.7802 19.0933 91.3109 19.52C90.8522 19.9467 90.2442 20.16 89.4869 20.16C88.9962 20.16 88.5535 20.0747 88.1589 19.904C87.7642 19.7227 87.4282 19.4933 87.1509 19.216C86.8842 18.9387 86.6815 18.656 86.5429 18.368L87.5509 17.744ZM99.3289 20V18.72H104.977V20H99.3289ZM99.3289 10.08V8.8H104.977V10.08H99.3289ZM99.3289 14.56V13.28H104.657V14.56H99.3289ZM98.5769 8.8H99.9369V20H98.5769V8.8ZM106.094 12.64H107.534L109.614 17.84L111.694 12.64H113.134L109.614 20.56L106.094 12.64ZM116.954 20.16C116.272 20.16 115.664 20 115.13 19.68C114.608 19.3493 114.197 18.896 113.898 18.32C113.61 17.744 113.466 17.0773 113.466 16.32C113.466 15.552 113.616 14.88 113.914 14.304C114.224 13.728 114.65 13.28 115.194 12.96C115.749 12.64 116.389 12.48 117.114 12.48C117.84 12.48 118.458 12.6347 118.97 12.944C119.493 13.2427 119.893 13.6747 120.17 14.24C120.448 14.8053 120.586 15.4773 120.586 16.256C120.586 16.3307 120.581 16.4107 120.57 16.496C120.57 16.5707 120.57 16.6187 120.57 16.64H114.282V15.552H119.562L119.05 16.288C119.082 16.2347 119.114 16.1547 119.146 16.048C119.178 15.9307 119.194 15.8347 119.194 15.76C119.194 15.3227 119.104 14.944 118.922 14.624C118.752 14.304 118.512 14.0533 118.202 13.872C117.893 13.6907 117.53 13.6 117.114 13.6C116.624 13.6 116.202 13.7067 115.85 13.92C115.509 14.1227 115.242 14.4213 115.05 14.816C114.869 15.2 114.773 15.6747 114.762 16.24C114.762 16.816 114.853 17.3067 115.034 17.712C115.216 18.1173 115.482 18.4267 115.834 18.64C116.186 18.8533 116.613 18.96 117.114 18.96C117.616 18.96 118.058 18.8533 118.442 18.64C118.826 18.416 119.152 18.08 119.418 17.632L120.458 18.288C120.074 18.9067 119.589 19.376 119.002 19.696C118.426 20.0053 117.744 20.16 116.954 20.16ZM127.061 15.52C127.061 14.912 126.927 14.4533 126.661 14.144C126.394 13.8347 126.005 13.68 125.493 13.68C125.119 13.68 124.789 13.76 124.501 13.92C124.223 14.0693 124.005 14.2827 123.845 14.56C123.695 14.8373 123.621 15.1573 123.621 15.52V20H122.341V12.64H123.621V13.792C123.866 13.344 124.17 13.0133 124.533 12.8C124.906 12.5867 125.333 12.48 125.813 12.48C126.591 12.48 127.205 12.7413 127.653 13.264C128.111 13.776 128.341 14.4747 128.341 15.36V20H127.061V15.52ZM129.627 12.64H133.307V13.84H129.627V12.64ZM130.827 10.08H132.107V20H130.827V10.08ZM134.895 17.744C135.044 17.968 135.215 18.176 135.407 18.368C135.599 18.56 135.817 18.7147 136.063 18.832C136.319 18.9387 136.596 18.992 136.895 18.992C137.257 18.992 137.54 18.912 137.743 18.752C137.956 18.5813 138.063 18.352 138.063 18.064C138.063 17.808 137.977 17.5947 137.807 17.424C137.647 17.2427 137.439 17.0933 137.183 16.976C136.927 16.848 136.655 16.7307 136.367 16.624C136.047 16.496 135.721 16.3467 135.391 16.176C135.071 15.9947 134.799 15.7653 134.575 15.488C134.361 15.2 134.255 14.8427 134.255 14.416C134.255 13.9787 134.367 13.616 134.591 13.328C134.825 13.04 135.124 12.8267 135.487 12.688C135.86 12.5493 136.244 12.48 136.639 12.48C137.033 12.48 137.401 12.544 137.743 12.672C138.095 12.8 138.404 12.9707 138.671 13.184C138.937 13.3973 139.145 13.6427 139.295 13.92L138.271 14.576C138.068 14.2987 137.812 14.0693 137.503 13.888C137.204 13.7067 136.863 13.616 136.479 13.616C136.212 13.616 135.983 13.6747 135.791 13.792C135.599 13.9093 135.503 14.0907 135.503 14.336C135.503 14.528 135.577 14.6987 135.727 14.848C135.876 14.9973 136.068 15.1307 136.303 15.248C136.537 15.3653 136.783 15.4773 137.039 15.584C137.465 15.7547 137.855 15.9413 138.207 16.144C138.559 16.336 138.836 16.5707 139.039 16.848C139.252 17.1253 139.359 17.4827 139.359 17.92C139.359 18.56 139.124 19.0933 138.655 19.52C138.196 19.9467 137.588 20.16 136.831 20.16C136.34 20.16 135.897 20.0747 135.503 19.904C135.108 19.7227 134.772 19.4933 134.495 19.216C134.228 18.9387 134.025 18.656 133.887 18.368L134.895 17.744Z" fill="#1C1C1C"/>
<path d="M237.448 8.8H238.808V20.56L230.328 11.664V20H228.968V8.24L237.448 17.136V8.8ZM244.142 20.16C243.459 20.16 242.851 20 242.318 19.68C241.795 19.3493 241.384 18.896 241.086 18.32C240.798 17.744 240.654 17.0773 240.654 16.32C240.654 15.552 240.803 14.88 241.102 14.304C241.411 13.728 241.838 13.28 242.382 12.96C242.936 12.64 243.576 12.48 244.302 12.48C245.027 12.48 245.646 12.6347 246.158 12.944C246.68 13.2427 247.08 13.6747 247.358 14.24C247.635 14.8053 247.774 15.4773 247.774 16.256C247.774 16.3307 247.768 16.4107 247.758 16.496C247.758 16.5707 247.758 16.6187 247.758 16.64H241.47V15.552H246.75L246.238 16.288C246.27 16.2347 246.302 16.1547 246.334 16.048C246.366 15.9307 246.382 15.8347 246.382 15.76C246.382 15.3227 246.291 14.944 246.11 14.624C245.939 14.304 245.699 14.0533 245.39 13.872C245.08 13.6907 244.718 13.6 244.302 13.6C243.811 13.6 243.39 13.7067 243.038 13.92C242.696 14.1227 242.43 14.4213 242.238 14.816C242.056 15.2 241.96 15.6747 241.95 16.24C241.95 16.816 242.04 17.3067 242.222 17.712C242.403 18.1173 242.67 18.4267 243.022 18.64C243.374 18.8533 243.8 18.96 244.302 18.96C244.803 18.96 245.246 18.8533 245.63 18.64C246.014 18.416 246.339 18.08 246.606 17.632L247.646 18.288C247.262 18.9067 246.776 19.376 246.19 19.696C245.614 20.0053 244.931 20.16 244.142 20.16ZM253.214 12.64H254.654L252.142 16.208L254.814 20H253.374L251.454 17.216L249.534 20H248.094L250.766 16.208L248.254 12.64H249.694L251.454 15.2L253.214 12.64ZM254.893 12.64H258.573V13.84H254.893V12.64ZM256.093 10.08H257.373V20H256.093V10.08ZM265.485 20V18.72H271.133V20H265.485ZM265.485 10.08V8.8H271.133V10.08H265.485ZM265.485 14.56V13.28H270.813V14.56H265.485ZM264.733 8.8H266.093V20H264.733V8.8ZM272.25 12.64H273.69L275.77 17.84L277.85 12.64H279.29L275.77 20.56L272.25 12.64ZM283.111 20.16C282.428 20.16 281.82 20 281.287 19.68C280.764 19.3493 280.353 18.896 280.055 18.32C279.767 17.744 279.623 17.0773 279.623 16.32C279.623 15.552 279.772 14.88 280.071 14.304C280.38 13.728 280.807 13.28 281.351 12.96C281.905 12.64 282.545 12.48 283.271 12.48C283.996 12.48 284.615 12.6347 285.127 12.944C285.649 13.2427 286.049 13.6747 286.327 14.24C286.604 14.8053 286.743 15.4773 286.743 16.256C286.743 16.3307 286.737 16.4107 286.727 16.496C286.727 16.5707 286.727 16.6187 286.727 16.64H280.439V15.552H285.719L285.207 16.288C285.239 16.2347 285.271 16.1547 285.303 16.048C285.335 15.9307 285.351 15.8347 285.351 15.76C285.351 15.3227 285.26 14.944 285.079 14.624C284.908 14.304 284.668 14.0533 284.359 13.872C284.049 13.6907 283.687 13.6 283.271 13.6C282.78 13.6 282.359 13.7067 282.007 13.92C281.665 14.1227 281.399 14.4213 281.207 14.816C281.025 15.2 280.929 15.6747 280.919 16.24C280.919 16.816 281.009 17.3067 281.191 17.712C281.372 18.1173 281.639 18.4267 281.991 18.64C282.343 18.8533 282.769 18.96 283.271 18.96C283.772 18.96 284.215 18.8533 284.599 18.64C284.983 18.416 285.308 18.08 285.575 17.632L286.615 18.288C286.231 18.9067 285.745 19.376 285.159 19.696C284.583 20.0053 283.9 20.16 283.111 20.16ZM293.217 15.52C293.217 14.912 293.084 14.4533 292.817 14.144C292.55 13.8347 292.161 13.68 291.649 13.68C291.276 13.68 290.945 13.76 290.657 13.92C290.38 14.0693 290.161 14.2827 290.001 14.56C289.852 14.8373 289.777 15.1573 289.777 15.52V20H288.497V12.64H289.777V13.792C290.022 13.344 290.326 13.0133 290.689 12.8C291.062 12.5867 291.489 12.48 291.969 12.48C292.748 12.48 293.361 12.7413 293.809 13.264C294.268 13.776 294.497 14.4747 294.497 15.36V20H293.217V15.52ZM295.783 12.64H299.463V13.84H295.783V12.64ZM296.983 10.08H298.263V20H296.983V10.08ZM301.051 17.744C301.2 17.968 301.371 18.176 301.563 18.368C301.755 18.56 301.974 18.7147 302.219 18.832C302.475 18.9387 302.752 18.992 303.051 18.992C303.414 18.992 303.696 18.912 303.899 18.752C304.112 18.5813 304.219 18.352 304.219 18.064C304.219 17.808 304.134 17.5947 303.963 17.424C303.803 17.2427 303.595 17.0933 303.339 16.976C303.083 16.848 302.811 16.7307 302.523 16.624C302.203 16.496 301.878 16.3467 301.547 16.176C301.227 15.9947 300.955 15.7653 300.731 15.488C300.518 15.2 300.411 14.8427 300.411 14.416C300.411 13.9787 300.523 13.616 300.747 13.328C300.982 13.04 301.28 12.8267 301.643 12.688C302.016 12.5493 302.4 12.48 302.795 12.48C303.19 12.48 303.558 12.544 303.899 12.672C304.251 12.8 304.56 12.9707 304.827 13.184C305.094 13.3973 305.302 13.6427 305.451 13.92L304.427 14.576C304.224 14.2987 303.968 14.0693 303.659 13.888C303.36 13.7067 303.019 13.616 302.635 13.616C302.368 13.616 302.139 13.6747 301.947 13.792C301.755 13.9093 301.659 14.0907 301.659 14.336C301.659 14.528 301.734 14.6987 301.883 14.848C302.032 14.9973 302.224 15.1307 302.459 15.248C302.694 15.3653 302.939 15.4773 303.195 15.584C303.622 15.7547 304.011 15.9413 304.363 16.144C304.715 16.336 304.992 16.5707 305.195 16.848C305.408 17.1253 305.515 17.4827 305.515 17.92C305.515 18.56 305.28 19.0933 304.811 19.52C304.352 19.9467 303.744 20.16 302.987 20.16C302.496 20.16 302.054 20.0747 301.659 19.904C301.264 19.7227 300.928 19.4933 300.651 19.216C300.384 18.9387 300.182 18.656 300.043 18.368L301.051 17.744Z" fill="#1C1C1C"/>
<path d="M328.268 4.21099C328.197 4.1427 328.114 4.08907 328.022 4.05314C327.93 4.01721 327.832 3.9997 327.734 4.0016C327.535 4.00545 327.346 4.08814 327.208 4.23149C327.07 4.37484 326.995 4.5671 326.999 4.76599C327.002 4.96487 327.085 5.15408 327.228 5.29199L335.503 13.252L316.75 13.252C316.551 13.252 316.361 13.331 316.22 13.4717C316.079 13.6123 316 13.8031 316 14.002C316 14.2009 316.079 14.3917 316.22 14.5323C316.361 14.673 316.551 14.752 316.75 14.752L335.501 14.752L327.227 22.71C327.156 22.7783 327.1 22.8599 327.06 22.9501C327.021 23.0404 326.999 23.1375 326.998 23.236C326.996 23.3345 327.013 23.4324 327.049 23.5241C327.085 23.6158 327.139 23.6995 327.207 23.7705C327.275 23.8415 327.357 23.8983 327.447 23.9377C327.537 23.9772 327.634 23.9985 327.733 24.0004C327.831 24.0023 327.929 23.9848 328.021 23.9488C328.113 23.9129 328.196 23.8593 328.267 23.791L337.695 14.722C337.792 14.6287 337.869 14.5168 337.922 14.393C337.975 14.2692 338.002 14.136 338.002 14.0015C338.002 13.867 337.975 13.7338 337.922 13.61C337.869 13.4862 337.792 13.3743 337.695 13.281L328.268 4.21099Z" fill="#1C1C1C"/>
<rect x="32.4316" y="76" width="44.2241" height="44.2241" rx="22.1121" fill="#FFD67E"/>
<path d="M51.9324 94.4961V92.9121L56.2524 91.8321V104.612H54.7224V93.6681L51.9324 94.4961Z" fill="#1C1C1C"/>
<path d="M102.849 104.612L108.807 98.2581C109.083 97.9581 109.317 97.6641 109.509 97.3761C109.713 97.0761 109.863 96.7761 109.959 96.4761C110.067 96.1641 110.121 95.8401 110.121 95.5041C110.121 95.2281 110.067 94.9581 109.959 94.6941C109.851 94.4301 109.689 94.1901 109.473 93.9741C109.269 93.7581 109.017 93.5841 108.717 93.4521C108.417 93.3201 108.075 93.2541 107.691 93.2541C107.151 93.2541 106.683 93.3801 106.287 93.6321C105.903 93.8721 105.609 94.2261 105.405 94.6941C105.201 95.1501 105.099 95.6961 105.099 96.3321H103.569C103.569 95.4321 103.731 94.6461 104.055 93.9741C104.379 93.2901 104.847 92.7621 105.459 92.3901C106.083 92.0061 106.827 91.8141 107.691 91.8141C108.387 91.8141 108.987 91.9341 109.491 92.1741C109.995 92.4021 110.409 92.7021 110.733 93.0741C111.057 93.4341 111.297 93.8241 111.453 94.2441C111.609 94.6641 111.687 95.0661 111.687 95.4501C111.687 96.0981 111.531 96.7401 111.219 97.3761C110.907 98.0121 110.505 98.5821 110.013 99.0861L105.999 103.172H111.741V104.612H102.849Z" fill="#1C1C1C"/>
<path d="M160.324 98.4021V97.4121C160.732 97.4121 161.092 97.3581 161.404 97.2501C161.716 97.1301 161.98 96.9741 162.196 96.7821C162.412 96.5781 162.574 96.3441 162.682 96.0801C162.802 95.8161 162.862 95.5341 162.862 95.2341C162.862 94.8381 162.79 94.4901 162.646 94.1901C162.502 93.8781 162.286 93.6381 161.998 93.4701C161.722 93.3021 161.374 93.2181 160.954 93.2181C160.366 93.2181 159.868 93.4041 159.46 93.7761C159.052 94.1361 158.848 94.5921 158.848 95.1441H157.39C157.39 94.4841 157.54 93.9081 157.84 93.4161C158.152 92.9241 158.572 92.5401 159.1 92.2641C159.64 91.9761 160.252 91.8321 160.936 91.8321C161.656 91.8321 162.274 91.9881 162.79 92.3001C163.318 92.6121 163.72 93.0201 163.996 93.5241C164.284 94.0281 164.428 94.5801 164.428 95.1801C164.428 95.7681 164.254 96.3081 163.906 96.8001C163.558 97.2921 163.078 97.6821 162.466 97.9701C161.854 98.2581 161.14 98.4021 160.324 98.4021ZM160.864 104.792C160.252 104.792 159.7 104.702 159.208 104.522C158.716 104.342 158.296 104.096 157.948 103.784C157.6 103.46 157.33 103.088 157.138 102.668C156.946 102.236 156.85 101.774 156.85 101.282H158.398C158.398 101.678 158.5 102.032 158.704 102.344C158.92 102.656 159.214 102.902 159.586 103.082C159.958 103.262 160.384 103.352 160.864 103.352C161.344 103.352 161.758 103.262 162.106 103.082C162.466 102.89 162.742 102.626 162.934 102.29C163.126 101.954 163.222 101.558 163.222 101.102C163.222 100.718 163.144 100.382 162.988 100.094C162.844 99.7941 162.64 99.5481 162.376 99.3561C162.112 99.1521 161.806 99.0021 161.458 98.9061C161.11 98.8101 160.732 98.7621 160.324 98.7621V97.7721C160.936 97.7721 161.506 97.8381 162.034 97.9701C162.574 98.1021 163.048 98.3121 163.456 98.6001C163.876 98.8761 164.2 99.2361 164.428 99.6801C164.668 100.124 164.788 100.658 164.788 101.282C164.788 101.99 164.614 102.608 164.266 103.136C163.93 103.664 163.468 104.072 162.88 104.36C162.292 104.648 161.62 104.792 160.864 104.792Z" fill="#1C1C1C"/>
<path d="M205.136 105.599C205.136 105.43 205.167 105.272 205.228 105.126C205.297 104.973 205.386 104.842 205.493 104.735C205.608 104.62 205.739 104.531 205.885 104.47C206.038 104.401 206.2 104.366 206.369 104.366C206.545 104.366 206.706 104.401 206.852 104.47C207.006 104.531 207.136 104.62 207.244 104.735C207.359 104.842 207.447 104.973 207.509 105.126C207.578 105.272 207.612 105.43 207.612 105.599C207.612 105.952 207.493 106.247 207.255 106.485C207.017 106.723 206.722 106.842 206.369 106.842C206.2 106.842 206.038 106.808 205.885 106.739C205.739 106.677 205.608 106.593 205.493 106.485C205.386 106.37 205.297 106.24 205.228 106.094C205.167 105.94 205.136 105.775 205.136 105.599Z" fill="#1C1C1C"/>
<path d="M240.515 105.599C240.515 105.43 240.546 105.272 240.607 105.126C240.676 104.973 240.765 104.842 240.872 104.735C240.987 104.62 241.118 104.531 241.264 104.47C241.417 104.401 241.579 104.366 241.747 104.366C241.924 104.366 242.085 104.401 242.231 104.47C242.385 104.531 242.515 104.62 242.623 104.735C242.738 104.842 242.826 104.973 242.888 105.126C242.957 105.272 242.991 105.43 242.991 105.599C242.991 105.952 242.872 106.247 242.634 106.485C242.396 106.723 242.101 106.842 241.747 106.842C241.579 106.842 241.417 106.808 241.264 106.739C241.118 106.677 240.987 106.593 240.872 106.485C240.765 106.37 240.676 106.24 240.607 106.094C240.546 105.94 240.515 105.775 240.515 105.599Z" fill="#1C1C1C"/>
<path d="M279.449 94.4961V92.9121L283.769 91.8321V104.612H282.239V93.6681L279.449 94.4961ZM288.362 98.3121C288.362 99.0441 288.434 99.7221 288.578 100.346C288.722 100.958 288.932 101.492 289.208 101.948C289.484 102.392 289.814 102.74 290.198 102.992C290.594 103.232 291.032 103.352 291.512 103.352C292.004 103.352 292.442 103.232 292.826 102.992C293.21 102.74 293.54 102.392 293.816 101.948C294.092 101.492 294.302 100.958 294.446 100.346C294.59 99.7221 294.662 99.0441 294.662 98.3121C294.662 97.5801 294.59 96.9081 294.446 96.2961C294.302 95.6721 294.092 95.1381 293.816 94.6941C293.54 94.2381 293.21 93.8901 292.826 93.6501C292.442 93.3981 292.004 93.2721 291.512 93.2721C291.032 93.2721 290.594 93.3981 290.198 93.6501C289.814 93.8901 289.484 94.2381 289.208 94.6941C288.932 95.1381 288.722 95.6721 288.578 96.2961C288.434 96.9081 288.362 97.5801 288.362 98.3121ZM286.832 98.3121C286.832 97.0521 287.03 95.9361 287.426 94.9641C287.822 93.9921 288.368 93.2301 289.064 92.6781C289.772 92.1141 290.588 91.8321 291.512 91.8321C292.436 91.8321 293.246 92.1141 293.942 92.6781C294.65 93.2301 295.202 93.9921 295.598 94.9641C295.994 95.9361 296.192 97.0521 296.192 98.3121C296.192 99.5721 295.994 100.688 295.598 101.66C295.202 102.632 294.65 103.4 293.942 103.964C293.246 104.516 292.436 104.792 291.512 104.792C290.588 104.792 289.772 104.516 289.064 103.964C288.368 103.4 287.822 102.632 287.426 101.66C287.03 100.688 286.832 99.5721 286.832 98.3121Z" fill="#1C1C1C"/>
</svg>
