<svg width="1419" height="144" viewBox="0 0 1419 144" fill="none" xmlns="http://www.w3.org/2000/svg">
<path d="M11.7326 27.789C11.8035 27.8573 11.8873 27.9109 11.979 27.9469C12.0707 27.9828 12.1686 28.0003 12.2671 27.9984C12.4659 27.9946 12.6552 27.9119 12.7931 27.7685C12.931 27.6252 13.0063 27.4329 13.0025 27.234C12.9986 27.0351 12.9159 26.8459 12.7726 26.708L4.49757 18.748L23.2506 18.748C23.4495 18.748 23.6402 18.669 23.7809 18.5283C23.9216 18.3877 24.0006 18.1969 24.0006 17.998C24.0006 17.7991 23.9216 17.6083 23.7809 17.4677C23.6402 17.327 23.4495 17.248 23.2506 17.248L4.49957 17.248L12.7736 9.29001C12.8445 9.22172 12.9014 9.14012 12.9408 9.04987C12.9803 8.95962 13.0016 8.86248 13.0035 8.764C13.0054 8.66553 12.9878 8.56764 12.9519 8.47593C12.916 8.38422 12.8624 8.30049 12.7941 8.22951C12.7258 8.15853 12.6442 8.10169 12.5539 8.06225C12.4637 8.02281 12.3665 8.00152 12.2681 7.99962C12.1696 7.99772 12.0717 8.01523 11.98 8.05115C11.8883 8.08708 11.8045 8.14072 11.7336 8.20901L2.30557 17.278C2.20863 17.3713 2.13152 17.4832 2.07885 17.607C2.02617 17.7308 1.99902 17.864 1.99902 17.9985C1.99902 18.133 2.02617 18.2662 2.07885 18.39C2.13152 18.5138 2.20863 18.6257 2.30557 18.719L11.7326 27.789Z" fill="black"/>
<path d="M37.92 9.2H39.96V26H37.92V9.2ZM39.048 11.12V9.2H42.48C43.568 9.2 44.536 9.408 45.384 9.824C46.248 10.224 46.928 10.8 47.424 11.552C47.936 12.304 48.192 13.2 48.192 14.24C48.192 15.264 47.936 16.16 47.424 16.928C46.928 17.68 46.248 18.264 45.384 18.68C44.536 19.08 43.568 19.28 42.48 19.28H39.048V17.36H42.48C43.568 17.36 44.448 17.096 45.12 16.568C45.808 16.04 46.152 15.264 46.152 14.24C46.152 13.2 45.808 12.424 45.12 11.912C44.448 11.384 43.568 11.12 42.48 11.12H39.048ZM52.3997 14.96V26H50.4797V14.96H52.3997ZM55.7357 17.072C55.4797 16.88 55.2477 16.744 55.0397 16.664C54.8317 16.568 54.5677 16.52 54.2477 16.52C53.7677 16.52 53.3917 16.64 53.1197 16.88C52.8477 17.12 52.6557 17.448 52.5437 17.864C52.4477 18.28 52.3997 18.752 52.3997 19.28H51.5357C51.5357 18.4 51.6877 17.624 51.9917 16.952C52.3117 16.264 52.7197 15.72 53.2157 15.32C53.7117 14.92 54.2157 14.72 54.7277 14.72C55.1277 14.72 55.4957 14.776 55.8317 14.888C56.1837 14.984 56.5037 15.184 56.7917 15.488L55.7357 17.072ZM62.6267 26.24C61.6027 26.24 60.6907 26 59.8907 25.52C59.1067 25.024 58.4907 24.344 58.0427 23.48C57.6107 22.616 57.3947 21.616 57.3947 20.48C57.3947 19.328 57.6187 18.32 58.0667 17.456C58.5307 16.592 59.1707 15.92 59.9867 15.44C60.8187 14.96 61.7787 14.72 62.8667 14.72C63.9547 14.72 64.8827 14.952 65.6507 15.416C66.4347 15.864 67.0347 16.512 67.4507 17.36C67.8667 18.208 68.0747 19.216 68.0747 20.384C68.0747 20.496 68.0667 20.616 68.0507 20.744C68.0507 20.856 68.0507 20.928 68.0507 20.96H58.6187V19.328H66.5387L65.7707 20.432C65.8187 20.352 65.8667 20.232 65.9147 20.072C65.9627 19.896 65.9867 19.752 65.9867 19.64C65.9867 18.984 65.8507 18.416 65.5787 17.936C65.3227 17.456 64.9627 17.08 64.4987 16.808C64.0347 16.536 63.4907 16.4 62.8667 16.4C62.1307 16.4 61.4987 16.56 60.9707 16.88C60.4587 17.184 60.0587 17.632 59.7707 18.224C59.4987 18.8 59.3547 19.512 59.3387 20.36C59.3387 21.224 59.4747 21.96 59.7467 22.568C60.0187 23.176 60.4187 23.64 60.9467 23.96C61.4747 24.28 62.1147 24.44 62.8667 24.44C63.6187 24.44 64.2827 24.28 64.8587 23.96C65.4347 23.624 65.9227 23.12 66.3227 22.448L67.8827 23.432C67.3067 24.36 66.5787 25.064 65.6987 25.544C64.8347 26.008 63.8107 26.24 62.6267 26.24ZM68.5547 14.96H70.7147L73.8347 22.76L76.9547 14.96H79.1147L73.8347 26.84L68.5547 14.96ZM80.925 10.4C80.925 10.032 81.053 9.72 81.309 9.464C81.581 9.208 81.893 9.08 82.245 9.08C82.613 9.08 82.925 9.208 83.181 9.464C83.437 9.72 83.565 10.032 83.565 10.4C83.565 10.752 83.437 11.064 83.181 11.336C82.925 11.592 82.613 11.72 82.245 11.72C81.893 11.72 81.581 11.592 81.309 11.336C81.053 11.064 80.925 10.752 80.925 10.4ZM81.285 14.96H83.205V26H81.285V14.96ZM86.1994 20.48C86.1994 19.36 86.4474 18.368 86.9434 17.504C87.4554 16.64 88.1434 15.96 89.0074 15.464C89.8714 14.968 90.8394 14.72 91.9114 14.72C92.9994 14.72 93.9674 14.968 94.8154 15.464C95.6794 15.96 96.3594 16.64 96.8554 17.504C97.3674 18.368 97.6234 19.36 97.6234 20.48C97.6234 21.584 97.3674 22.576 96.8554 23.456C96.3594 24.32 95.6794 25 94.8154 25.496C93.9674 25.992 92.9994 26.24 91.9114 26.24C90.8394 26.24 89.8714 25.992 89.0074 25.496C88.1434 25 87.4554 24.32 86.9434 23.456C86.4474 22.576 86.1994 21.584 86.1994 20.48ZM88.1434 20.48C88.1434 21.248 88.3034 21.928 88.6234 22.52C88.9594 23.112 89.4074 23.584 89.9674 23.936C90.5434 24.272 91.1914 24.44 91.9114 24.44C92.6314 24.44 93.2714 24.272 93.8314 23.936C94.4074 23.584 94.8554 23.112 95.1754 22.52C95.5114 21.928 95.6794 21.248 95.6794 20.48C95.6794 19.712 95.5114 19.032 95.1754 18.44C94.8554 17.832 94.4074 17.36 93.8314 17.024C93.2714 16.688 92.6314 16.52 91.9114 16.52C91.1914 16.52 90.5434 16.688 89.9674 17.024C89.4074 17.36 88.9594 17.832 88.6234 18.44C88.3034 19.032 88.1434 19.712 88.1434 20.48ZM102.181 21.68C102.181 22.56 102.381 23.24 102.781 23.72C103.181 24.2 103.765 24.44 104.533 24.44C105.093 24.44 105.581 24.328 105.997 24.104C106.429 23.864 106.757 23.536 106.981 23.12C107.221 22.704 107.341 22.224 107.341 21.68V14.96H109.261V26H107.341V24.272C106.973 24.928 106.517 25.424 105.973 25.76C105.429 26.08 104.789 26.24 104.053 26.24C102.901 26.24 101.981 25.848 101.293 25.064C100.605 24.28 100.261 23.232 100.261 21.92V14.96H102.181V21.68ZM113.326 22.616C113.55 22.952 113.806 23.264 114.094 23.552C114.382 23.84 114.71 24.072 115.078 24.248C115.462 24.408 115.878 24.488 116.326 24.488C116.87 24.488 117.294 24.368 117.598 24.128C117.918 23.872 118.078 23.528 118.078 23.096C118.078 22.712 117.95 22.392 117.694 22.136C117.454 21.864 117.142 21.64 116.758 21.464C116.374 21.272 115.966 21.096 115.534 20.936C115.054 20.744 114.566 20.52 114.07 20.264C113.59 19.992 113.182 19.648 112.846 19.232C112.526 18.8 112.366 18.264 112.366 17.624C112.366 16.968 112.534 16.424 112.87 15.992C113.222 15.56 113.67 15.24 114.214 15.032C114.774 14.824 115.35 14.72 115.942 14.72C116.534 14.72 117.086 14.816 117.598 15.008C118.126 15.2 118.59 15.456 118.99 15.776C119.39 16.096 119.702 16.464 119.926 16.88L118.39 17.864C118.086 17.448 117.702 17.104 117.238 16.832C116.79 16.56 116.278 16.424 115.702 16.424C115.302 16.424 114.958 16.512 114.67 16.688C114.382 16.864 114.238 17.136 114.238 17.504C114.238 17.792 114.35 18.048 114.574 18.272C114.798 18.496 115.086 18.696 115.438 18.872C115.79 19.048 116.158 19.216 116.542 19.376C117.182 19.632 117.766 19.912 118.294 20.216C118.822 20.504 119.238 20.856 119.542 21.272C119.862 21.688 120.022 22.224 120.022 22.88C120.022 23.84 119.67 24.64 118.966 25.28C118.278 25.92 117.366 26.24 116.23 26.24C115.494 26.24 114.83 26.112 114.238 25.856C113.646 25.584 113.142 25.24 112.726 24.824C112.326 24.408 112.022 23.984 111.814 23.552L113.326 22.616ZM130.993 26V24.08H139.465V26H130.993ZM130.993 11.12V9.2H139.465V11.12H130.993ZM130.993 17.84V15.92H138.985V17.84H130.993ZM129.865 9.2H131.905V26H129.865V9.2ZM141.141 14.96H143.301L146.421 22.76L149.541 14.96H151.701L146.421 26.84L141.141 14.96ZM157.431 26.24C156.407 26.24 155.495 26 154.695 25.52C153.911 25.024 153.295 24.344 152.847 23.48C152.415 22.616 152.199 21.616 152.199 20.48C152.199 19.328 152.423 18.32 152.871 17.456C153.335 16.592 153.975 15.92 154.791 15.44C155.623 14.96 156.583 14.72 157.671 14.72C158.759 14.72 159.687 14.952 160.455 15.416C161.239 15.864 161.839 16.512 162.255 17.36C162.671 18.208 162.879 19.216 162.879 20.384C162.879 20.496 162.871 20.616 162.855 20.744C162.855 20.856 162.855 20.928 162.855 20.96H153.423V19.328H161.343L160.575 20.432C160.623 20.352 160.671 20.232 160.719 20.072C160.767 19.896 160.791 19.752 160.791 19.64C160.791 18.984 160.655 18.416 160.383 17.936C160.127 17.456 159.767 17.08 159.303 16.808C158.839 16.536 158.295 16.4 157.671 16.4C156.935 16.4 156.303 16.56 155.775 16.88C155.263 17.184 154.863 17.632 154.575 18.224C154.303 18.8 154.159 19.512 154.143 20.36C154.143 21.224 154.279 21.96 154.551 22.568C154.823 23.176 155.223 23.64 155.751 23.96C156.279 24.28 156.919 24.44 157.671 24.44C158.423 24.44 159.087 24.28 159.663 23.96C160.239 23.624 160.727 23.12 161.127 22.448L162.687 23.432C162.111 24.36 161.383 25.064 160.503 25.544C159.639 26.008 158.615 26.24 157.431 26.24ZM172.591 19.28C172.591 18.368 172.391 17.68 171.991 17.216C171.591 16.752 171.007 16.52 170.239 16.52C169.679 16.52 169.183 16.64 168.751 16.88C168.335 17.104 168.007 17.424 167.767 17.84C167.543 18.256 167.431 18.736 167.431 19.28V26H165.511V14.96H167.431V16.688C167.799 16.016 168.255 15.52 168.799 15.2C169.359 14.88 169.999 14.72 170.719 14.72C171.887 14.72 172.807 15.112 173.479 15.896C174.167 16.664 174.511 17.712 174.511 19.04V26H172.591V19.28ZM176.44 14.96H181.96V16.76H176.44V14.96ZM178.24 11.12H180.16V26H178.24V11.12ZM184.342 22.616C184.566 22.952 184.822 23.264 185.11 23.552C185.398 23.84 185.726 24.072 186.094 24.248C186.478 24.408 186.894 24.488 187.342 24.488C187.886 24.488 188.31 24.368 188.614 24.128C188.934 23.872 189.094 23.528 189.094 23.096C189.094 22.712 188.966 22.392 188.71 22.136C188.47 21.864 188.158 21.64 187.774 21.464C187.39 21.272 186.982 21.096 186.55 20.936C186.07 20.744 185.582 20.52 185.086 20.264C184.606 19.992 184.198 19.648 183.862 19.232C183.542 18.8 183.382 18.264 183.382 17.624C183.382 16.968 183.55 16.424 183.886 15.992C184.238 15.56 184.686 15.24 185.23 15.032C185.79 14.824 186.366 14.72 186.958 14.72C187.55 14.72 188.102 14.816 188.614 15.008C189.142 15.2 189.606 15.456 190.006 15.776C190.406 16.096 190.718 16.464 190.942 16.88L189.406 17.864C189.102 17.448 188.718 17.104 188.254 16.832C187.806 16.56 187.294 16.424 186.718 16.424C186.318 16.424 185.974 16.512 185.686 16.688C185.398 16.864 185.254 17.136 185.254 17.504C185.254 17.792 185.366 18.048 185.59 18.272C185.814 18.496 186.102 18.696 186.454 18.872C186.806 19.048 187.174 19.216 187.558 19.376C188.198 19.632 188.782 19.912 189.31 20.216C189.838 20.504 190.254 20.856 190.558 21.272C190.878 21.688 191.038 22.224 191.038 22.88C191.038 23.84 190.686 24.64 189.982 25.28C189.294 25.92 188.382 26.24 187.246 26.24C186.51 26.24 185.846 26.112 185.254 25.856C184.662 25.584 184.158 25.24 183.742 24.824C183.342 24.408 183.038 23.984 182.83 23.552L184.342 22.616Z" fill="black"/>
<path d="M1263.64 9.2H1265.68V26.84L1252.96 13.496V26H1250.92V8.36L1263.64 21.704V9.2ZM1273.68 26.24C1272.66 26.24 1271.75 26 1270.95 25.52C1270.16 25.024 1269.55 24.344 1269.1 23.48C1268.67 22.616 1268.45 21.616 1268.45 20.48C1268.45 19.328 1268.67 18.32 1269.12 17.456C1269.59 16.592 1270.23 15.92 1271.04 15.44C1271.87 14.96 1272.83 14.72 1273.92 14.72C1275.01 14.72 1275.94 14.952 1276.71 15.416C1277.49 15.864 1278.09 16.512 1278.51 17.36C1278.92 18.208 1279.13 19.216 1279.13 20.384C1279.13 20.496 1279.12 20.616 1279.11 20.744C1279.11 20.856 1279.11 20.928 1279.11 20.96H1269.67V19.328H1277.59L1276.83 20.432C1276.87 20.352 1276.92 20.232 1276.97 20.072C1277.02 19.896 1277.04 19.752 1277.04 19.64C1277.04 18.984 1276.91 18.416 1276.63 17.936C1276.38 17.456 1276.02 17.08 1275.55 16.808C1275.09 16.536 1274.55 16.4 1273.92 16.4C1273.19 16.4 1272.55 16.56 1272.03 16.88C1271.51 17.184 1271.11 17.632 1270.83 18.224C1270.55 18.8 1270.41 19.512 1270.39 20.36C1270.39 21.224 1270.53 21.96 1270.8 22.568C1271.07 23.176 1271.47 23.64 1272 23.96C1272.53 24.28 1273.17 24.44 1273.92 24.44C1274.67 24.44 1275.34 24.28 1275.91 23.96C1276.49 23.624 1276.98 23.12 1277.38 22.448L1278.94 23.432C1278.36 24.36 1277.63 25.064 1276.75 25.544C1275.89 26.008 1274.87 26.24 1273.68 26.24ZM1287.29 14.96H1289.45L1285.68 20.312L1289.69 26H1287.53L1284.65 21.824L1281.77 26H1279.61L1283.62 20.312L1279.85 14.96H1282.01L1284.65 18.8L1287.29 14.96ZM1289.81 14.96H1295.33V16.76H1289.81V14.96ZM1291.61 11.12H1293.53V26H1291.61V11.12ZM1305.7 26V24.08H1314.17V26H1305.7ZM1305.7 11.12V9.2H1314.17V11.12H1305.7ZM1305.7 17.84V15.92H1313.69V17.84H1305.7ZM1304.57 9.2H1306.61V26H1304.57V9.2ZM1315.84 14.96H1318L1321.12 22.76L1324.24 14.96H1326.4L1321.12 26.84L1315.84 14.96ZM1332.13 26.24C1331.11 26.24 1330.2 26 1329.4 25.52C1328.61 25.024 1328 24.344 1327.55 23.48C1327.12 22.616 1326.9 21.616 1326.9 20.48C1326.9 19.328 1327.13 18.32 1327.57 17.456C1328.04 16.592 1328.68 15.92 1329.49 15.44C1330.33 14.96 1331.29 14.72 1332.37 14.72C1333.46 14.72 1334.39 14.952 1335.16 15.416C1335.94 15.864 1336.54 16.512 1336.96 17.36C1337.37 18.208 1337.58 19.216 1337.58 20.384C1337.58 20.496 1337.57 20.616 1337.56 20.744C1337.56 20.856 1337.56 20.928 1337.56 20.96H1328.13V19.328H1336.05L1335.28 20.432C1335.33 20.352 1335.37 20.232 1335.42 20.072C1335.47 19.896 1335.49 19.752 1335.49 19.64C1335.49 18.984 1335.36 18.416 1335.09 17.936C1334.83 17.456 1334.47 17.08 1334.01 16.808C1333.54 16.536 1333 16.4 1332.37 16.4C1331.64 16.4 1331.01 16.56 1330.48 16.88C1329.97 17.184 1329.57 17.632 1329.28 18.224C1329.01 18.8 1328.86 19.512 1328.85 20.36C1328.85 21.224 1328.98 21.96 1329.25 22.568C1329.53 23.176 1329.93 23.64 1330.45 23.96C1330.98 24.28 1331.62 24.44 1332.37 24.44C1333.13 24.44 1333.79 24.28 1334.37 23.96C1334.94 23.624 1335.43 23.12 1335.83 22.448L1337.39 23.432C1336.81 24.36 1336.09 25.064 1335.21 25.544C1334.34 26.008 1333.32 26.24 1332.13 26.24ZM1347.29 19.28C1347.29 18.368 1347.09 17.68 1346.69 17.216C1346.29 16.752 1345.71 16.52 1344.94 16.52C1344.38 16.52 1343.89 16.64 1343.45 16.88C1343.04 17.104 1342.71 17.424 1342.47 17.84C1342.25 18.256 1342.13 18.736 1342.13 19.28V26H1340.21V14.96H1342.13V16.688C1342.5 16.016 1342.96 15.52 1343.5 15.2C1344.06 14.88 1344.7 14.72 1345.42 14.72C1346.59 14.72 1347.51 15.112 1348.18 15.896C1348.87 16.664 1349.21 17.712 1349.21 19.04V26H1347.29V19.28ZM1351.14 14.96H1356.66V16.76H1351.14V14.96ZM1352.94 11.12H1354.86V26H1352.94V11.12ZM1359.05 22.616C1359.27 22.952 1359.53 23.264 1359.81 23.552C1360.1 23.84 1360.43 24.072 1360.8 24.248C1361.18 24.408 1361.6 24.488 1362.05 24.488C1362.59 24.488 1363.01 24.368 1363.32 24.128C1363.64 23.872 1363.8 23.528 1363.8 23.096C1363.8 22.712 1363.67 22.392 1363.41 22.136C1363.17 21.864 1362.86 21.64 1362.48 21.464C1362.09 21.272 1361.69 21.096 1361.25 20.936C1360.77 20.744 1360.29 20.52 1359.79 20.264C1359.31 19.992 1358.9 19.648 1358.57 19.232C1358.25 18.8 1358.09 18.264 1358.09 17.624C1358.09 16.968 1358.25 16.424 1358.59 15.992C1358.94 15.56 1359.39 15.24 1359.93 15.032C1360.49 14.824 1361.07 14.72 1361.66 14.72C1362.25 14.72 1362.81 14.816 1363.32 15.008C1363.85 15.2 1364.31 15.456 1364.71 15.776C1365.11 16.096 1365.42 16.464 1365.65 16.88L1364.11 17.864C1363.81 17.448 1363.42 17.104 1362.96 16.832C1362.51 16.56 1362 16.424 1361.42 16.424C1361.02 16.424 1360.68 16.512 1360.39 16.688C1360.1 16.864 1359.96 17.136 1359.96 17.504C1359.96 17.792 1360.07 18.048 1360.29 18.272C1360.52 18.496 1360.81 18.696 1361.16 18.872C1361.51 19.048 1361.88 19.216 1362.26 19.376C1362.9 19.632 1363.49 19.912 1364.01 20.216C1364.54 20.504 1364.96 20.856 1365.26 21.272C1365.58 21.688 1365.74 22.224 1365.74 22.88C1365.74 23.84 1365.39 24.64 1364.69 25.28C1364 25.92 1363.09 26.24 1361.95 26.24C1361.21 26.24 1360.55 26.112 1359.96 25.856C1359.37 25.584 1358.86 25.24 1358.45 24.824C1358.05 24.408 1357.74 23.984 1357.53 23.552L1359.05 22.616Z" fill="black"/>
<path d="M1405.27 8.21099C1405.2 8.1427 1405.11 8.08907 1405.02 8.05314C1404.93 8.01721 1404.83 7.9997 1404.73 8.0016C1404.54 8.00545 1404.35 8.08814 1404.21 8.23149C1404.07 8.37484 1403.99 8.5671 1404 8.76599C1404 8.96487 1404.09 9.15408 1404.23 9.29199L1412.5 17.252L1393.75 17.252C1393.55 17.252 1393.36 17.331 1393.22 17.4717C1393.08 17.6123 1393 17.8031 1393 18.002C1393 18.2009 1393.08 18.3917 1393.22 18.5323C1393.36 18.673 1393.55 18.752 1393.75 18.752L1412.5 18.752L1404.23 26.71C1404.16 26.7783 1404.1 26.8599 1404.06 26.9501C1404.02 27.0404 1404 27.1375 1404 27.236C1404 27.3345 1404.01 27.4324 1404.05 27.5241C1404.08 27.6158 1404.14 27.6995 1404.21 27.7705C1404.28 27.8415 1404.36 27.8983 1404.45 27.9377C1404.54 27.9772 1404.63 27.9985 1404.73 28.0004C1404.83 28.0023 1404.93 27.9848 1405.02 27.9488C1405.11 27.9129 1405.2 27.8593 1405.27 27.791L1414.7 18.722C1414.79 18.6287 1414.87 18.5168 1414.92 18.393C1414.97 18.2692 1415 18.136 1415 18.0015C1415 17.867 1414.97 17.7338 1414.92 17.61C1414.87 17.4862 1414.79 17.3743 1414.7 17.281L1405.27 8.21099Z" fill="black"/>
<rect x="477.5" y="84" width="60" height="60" rx="30" fill="#FFD67E"/>
<path d="M504.018 108.512V106.4L509.778 104.96V122H507.738V107.408L504.018 108.512Z" fill="black"/>
<path d="M573.148 122L581.092 113.528C581.46 113.128 581.772 112.736 582.028 112.352C582.3 111.952 582.5 111.552 582.628 111.152C582.772 110.736 582.844 110.304 582.844 109.856C582.844 109.488 582.772 109.128 582.628 108.776C582.484 108.424 582.268 108.104 581.98 107.816C581.708 107.528 581.372 107.296 580.972 107.12C580.572 106.944 580.116 106.856 579.604 106.856C578.884 106.856 578.26 107.024 577.732 107.36C577.22 107.68 576.828 108.152 576.556 108.776C576.284 109.384 576.148 110.112 576.148 110.96H574.108C574.108 109.76 574.324 108.712 574.756 107.816C575.188 106.904 575.812 106.2 576.628 105.704C577.46 105.192 578.452 104.936 579.604 104.936C580.532 104.936 581.332 105.096 582.004 105.416C582.676 105.72 583.228 106.12 583.66 106.616C584.092 107.096 584.412 107.616 584.62 108.176C584.828 108.736 584.932 109.272 584.932 109.784C584.932 110.648 584.724 111.504 584.308 112.352C583.892 113.2 583.356 113.96 582.7 114.632L577.348 120.08H585.004V122H573.148Z" fill="black"/>
<path d="M651.021 113.72V112.4C651.565 112.4 652.045 112.328 652.461 112.184C652.877 112.024 653.229 111.816 653.517 111.56C653.805 111.288 654.021 110.976 654.165 110.624C654.325 110.272 654.405 109.896 654.405 109.496C654.405 108.968 654.309 108.504 654.117 108.104C653.925 107.688 653.637 107.368 653.253 107.144C652.885 106.92 652.421 106.808 651.861 106.808C651.077 106.808 650.413 107.056 649.869 107.552C649.325 108.032 649.053 108.64 649.053 109.376H647.109C647.109 108.496 647.309 107.728 647.709 107.072C648.125 106.416 648.685 105.904 649.389 105.536C650.109 105.152 650.925 104.96 651.837 104.96C652.797 104.96 653.621 105.168 654.309 105.584C655.013 106 655.549 106.544 655.917 107.216C656.301 107.888 656.493 108.624 656.493 109.424C656.493 110.208 656.261 110.928 655.797 111.584C655.333 112.24 654.693 112.76 653.877 113.144C653.061 113.528 652.109 113.72 651.021 113.72ZM651.741 122.24C650.925 122.24 650.189 122.12 649.533 121.88C648.877 121.64 648.317 121.312 647.853 120.896C647.389 120.464 647.029 119.968 646.773 119.408C646.517 118.832 646.389 118.216 646.389 117.56H648.453C648.453 118.088 648.589 118.56 648.861 118.976C649.149 119.392 649.541 119.72 650.037 119.96C650.533 120.2 651.101 120.32 651.741 120.32C652.381 120.32 652.933 120.2 653.397 119.96C653.877 119.704 654.245 119.352 654.501 118.904C654.757 118.456 654.885 117.928 654.885 117.32C654.885 116.808 654.781 116.36 654.573 115.976C654.381 115.576 654.109 115.248 653.757 114.992C653.405 114.72 652.997 114.52 652.533 114.392C652.069 114.264 651.565 114.2 651.021 114.2V112.88C651.837 112.88 652.597 112.968 653.301 113.144C654.021 113.32 654.653 113.6 655.197 113.984C655.757 114.352 656.189 114.832 656.493 115.424C656.813 116.016 656.973 116.728 656.973 117.56C656.973 118.504 656.741 119.328 656.277 120.032C655.829 120.736 655.213 121.28 654.429 121.664C653.645 122.048 652.749 122.24 651.741 122.24Z" fill="black"/>
<path d="M711.812 123.625C711.812 123.396 711.854 123.182 711.938 122.984C712.031 122.776 712.151 122.599 712.297 122.453C712.453 122.297 712.63 122.177 712.828 122.094C713.036 122 713.255 121.953 713.484 121.953C713.724 121.953 713.943 122 714.141 122.094C714.349 122.177 714.526 122.297 714.672 122.453C714.828 122.599 714.948 122.776 715.031 122.984C715.125 123.182 715.172 123.396 715.172 123.625C715.172 124.104 715.01 124.505 714.688 124.828C714.365 125.151 713.964 125.312 713.484 125.312C713.255 125.312 713.036 125.266 712.828 125.172C712.63 125.089 712.453 124.974 712.297 124.828C712.151 124.672 712.031 124.495 711.938 124.297C711.854 124.089 711.812 123.865 711.812 123.625Z" fill="black"/>
<path d="M759.812 123.625C759.812 123.396 759.854 123.182 759.938 122.984C760.031 122.776 760.151 122.599 760.297 122.453C760.453 122.297 760.63 122.177 760.828 122.094C761.036 122 761.255 121.953 761.484 121.953C761.724 121.953 761.943 122 762.141 122.094C762.349 122.177 762.526 122.297 762.672 122.453C762.828 122.599 762.948 122.776 763.031 122.984C763.125 123.182 763.172 123.396 763.172 123.625C763.172 124.104 763.01 124.505 762.688 124.828C762.365 125.151 761.964 125.312 761.484 125.312C761.255 125.312 761.036 125.266 760.828 125.172C760.63 125.089 760.453 124.974 760.297 124.828C760.151 124.672 760.031 124.495 759.938 124.297C759.854 124.089 759.812 123.865 759.812 123.625Z" fill="black"/>
<path d="M807.812 123.625C807.812 123.396 807.854 123.182 807.938 122.984C808.031 122.776 808.151 122.599 808.297 122.453C808.453 122.297 808.63 122.177 808.828 122.094C809.036 122 809.255 121.953 809.484 121.953C809.724 121.953 809.943 122 810.141 122.094C810.349 122.177 810.526 122.297 810.672 122.453C810.828 122.599 810.948 122.776 811.031 122.984C811.125 123.182 811.172 123.396 811.172 123.625C811.172 124.104 811.01 124.505 810.688 124.828C810.365 125.151 809.964 125.312 809.484 125.312C809.255 125.312 809.036 125.266 808.828 125.172C808.63 125.089 808.453 124.974 808.297 124.828C808.151 124.672 808.031 124.495 807.938 124.297C807.854 124.089 807.812 123.865 807.812 123.625Z" fill="black"/>
<path d="M847.812 123.625C847.812 123.396 847.854 123.182 847.938 122.984C848.031 122.776 848.151 122.599 848.297 122.453C848.453 122.297 848.63 122.177 848.828 122.094C849.036 122 849.255 121.953 849.484 121.953C849.724 121.953 849.943 122 850.141 122.094C850.349 122.177 850.526 122.297 850.672 122.453C850.828 122.599 850.948 122.776 851.031 122.984C851.125 123.182 851.172 123.396 851.172 123.625C851.172 124.104 851.01 124.505 850.688 124.828C850.365 125.151 849.964 125.312 849.484 125.312C849.255 125.312 849.036 125.266 848.828 125.172C848.63 125.089 848.453 124.974 848.297 124.828C848.151 124.672 848.031 124.495 847.938 124.297C847.854 124.089 847.812 123.865 847.812 123.625Z" fill="black"/>
<path d="M900.822 108.512V106.4L906.582 104.96V122H904.542V107.408L900.822 108.512ZM912.707 113.6C912.707 114.576 912.803 115.48 912.995 116.312C913.187 117.128 913.467 117.84 913.835 118.448C914.203 119.04 914.643 119.504 915.155 119.84C915.683 120.16 916.267 120.32 916.907 120.32C917.563 120.32 918.147 120.16 918.659 119.84C919.171 119.504 919.611 119.04 919.979 118.448C920.347 117.84 920.627 117.128 920.819 116.312C921.011 115.48 921.107 114.576 921.107 113.6C921.107 112.624 921.011 111.728 920.819 110.912C920.627 110.08 920.347 109.368 919.979 108.776C919.611 108.168 919.171 107.704 918.659 107.384C918.147 107.048 917.563 106.88 916.907 106.88C916.267 106.88 915.683 107.048 915.155 107.384C914.643 107.704 914.203 108.168 913.835 108.776C913.467 109.368 913.187 110.08 912.995 110.912C912.803 111.728 912.707 112.624 912.707 113.6ZM910.667 113.6C910.667 111.92 910.931 110.432 911.459 109.136C911.987 107.84 912.715 106.824 913.643 106.088C914.587 105.336 915.675 104.96 916.907 104.96C918.139 104.96 919.219 105.336 920.147 106.088C921.091 106.824 921.827 107.84 922.355 109.136C922.883 110.432 923.147 111.92 923.147 113.6C923.147 115.28 922.883 116.768 922.355 118.064C921.827 119.36 921.091 120.384 920.147 121.136C919.219 121.872 918.139 122.24 916.907 122.24C915.675 122.24 914.587 121.872 913.643 121.136C912.715 120.384 911.987 119.36 911.459 118.064C910.931 116.768 910.667 115.28 910.667 113.6Z" fill="black"/>
</svg>
