<svg width="25" height="25" viewBox="0 0 25 25" fill="none" xmlns="http://www.w3.org/2000/svg">
<g clip-path="url(#clip0_9823_1722)">
<path d="M24.5001 12.5735C24.5001 5.90454 19.1271 0.498535 12.5001 0.498535C5.87007 0.500035 0.49707 5.90454 0.49707 12.575C0.49707 18.6005 4.88607 23.5955 10.6221 24.5015V16.064H7.57707V12.575H10.6251V9.91253C10.6251 6.88704 12.4176 5.21603 15.1581 5.21603C16.4721 5.21603 17.8446 5.45154 17.8446 5.45154V8.42154H16.3311C14.8416 8.42154 14.3766 9.35303 14.3766 10.3085V12.5735H17.7036L17.1726 16.0625H14.3751V24.5C20.1111 23.594 24.5001 18.599 24.5001 12.5735Z" fill="black"/>
</g>
<defs>
<clipPath id="clip0_9823_1722">
<rect width="24" height="24" fill="white" transform="translate(0.5 0.5)"/>
</clipPath>
</defs>
</svg>
