<svg width="54" height="54" viewBox="0 0 54 54" fill="none" xmlns="http://www.w3.org/2000/svg">
<rect width="54" height="54" rx="27" fill="#FFF3D9"/>
<path d="M17 27C17 23.229 17 21.343 18.172 20.172C19.344 19.001 21.229 19 25 19H29C32.771 19 34.657 19 35.828 20.172C36.999 21.344 37 23.229 37 27V29C37 32.771 37 34.657 35.828 35.828C34.656 36.999 32.771 37 29 37H25C21.229 37 19.343 37 18.172 35.828C17.001 34.656 17 32.771 17 29V27Z" stroke="#FFAE00" stroke-width="1.5"/>
<path d="M22 19V17.5M32 19V17.5M17.5 24H36.5" stroke="#FFAE00" stroke-width="1.5" stroke-linecap="round"/>
<path d="M33 32C33 32.2652 32.8946 32.5196 32.7071 32.7071C32.5196 32.8946 32.2652 33 32 33C31.7348 33 31.4804 32.8946 31.2929 32.7071C31.1054 32.5196 31 32.2652 31 32C31 31.7348 31.1054 31.4804 31.2929 31.2929C31.4804 31.1054 31.7348 31 32 31C32.2652 31 32.5196 31.1054 32.7071 31.2929C32.8946 31.4804 33 31.7348 33 32ZM33 28C33 28.2652 32.8946 28.5196 32.7071 28.7071C32.5196 28.8946 32.2652 29 32 29C31.7348 29 31.4804 28.8946 31.2929 28.7071C31.1054 28.5196 31 28.2652 31 28C31 27.7348 31.1054 27.4804 31.2929 27.2929C31.4804 27.1054 31.7348 27 32 27C32.2652 27 32.5196 27.1054 32.7071 27.2929C32.8946 27.4804 33 27.7348 33 28ZM28 32C28 32.2652 27.8946 32.5196 27.7071 32.7071C27.5196 32.8946 27.2652 33 27 33C26.7348 33 26.4804 32.8946 26.2929 32.7071C26.1054 32.5196 26 32.2652 26 32C26 31.7348 26.1054 31.4804 26.2929 31.2929C26.4804 31.1054 26.7348 31 27 31C27.2652 31 27.5196 31.1054 27.7071 31.2929C27.8946 31.4804 28 31.7348 28 32ZM28 28C28 28.2652 27.8946 28.5196 27.7071 28.7071C27.5196 28.8946 27.2652 29 27 29C26.7348 29 26.4804 28.8946 26.2929 28.7071C26.1054 28.5196 26 28.2652 26 28C26 27.7348 26.1054 27.4804 26.2929 27.2929C26.4804 27.1054 26.7348 27 27 27C27.2652 27 27.5196 27.1054 27.7071 27.2929C27.8946 27.4804 28 27.7348 28 28ZM23 32C23 32.2652 22.8946 32.5196 22.7071 32.7071C22.5196 32.8946 22.2652 33 22 33C21.7348 33 21.4804 32.8946 21.2929 32.7071C21.1054 32.5196 21 32.2652 21 32C21 31.7348 21.1054 31.4804 21.2929 31.2929C21.4804 31.1054 21.7348 31 22 31C22.2652 31 22.5196 31.1054 22.7071 31.2929C22.8946 31.4804 23 31.7348 23 32ZM23 28C23 28.2652 22.8946 28.5196 22.7071 28.7071C22.5196 28.8946 22.2652 29 22 29C21.7348 29 21.4804 28.8946 21.2929 28.7071C21.1054 28.5196 21 28.2652 21 28C21 27.7348 21.1054 27.4804 21.2929 27.2929C21.4804 27.1054 21.7348 27 22 27C22.2652 27 22.5196 27.1054 22.7071 27.2929C22.8946 27.4804 23 27.7348 23 28Z" fill="#FFAE00"/>
</svg>
