<svg width="32" height="32" viewBox="0 0 32 32" fill="none" xmlns="http://www.w3.org/2000/svg">
<rect x="0.15918" y="0.102783" width="31.7086" height="31.7086" rx="15.8543" fill="#FFF5DE"/>
<path fill-rule="evenodd" clip-rule="evenodd" d="M15.4562 23.608C15.4562 23.608 9.97363 18.9906 9.97363 14.4472C9.97363 12.8454 10.61 11.3091 11.7426 10.1765C12.8753 9.0438 14.4115 8.40747 16.0134 8.40747C17.6152 8.40747 19.1514 9.0438 20.2841 10.1765C21.4168 11.3091 22.0531 12.8454 22.0531 14.4472C22.0531 18.9906 16.5705 23.608 16.5705 23.608C16.2655 23.8888 15.7635 23.8858 15.4562 23.608ZM16.0134 17.0896C16.3604 17.0896 16.704 17.0212 17.0246 16.8885C17.3452 16.7557 17.6364 16.561 17.8818 16.3157C18.1272 16.0703 18.3218 15.779 18.4546 15.4584C18.5874 15.1378 18.6558 14.7942 18.6558 14.4472C18.6558 14.1002 18.5874 13.7566 18.4546 13.436C18.3218 13.1154 18.1272 12.8241 17.8818 12.5788C17.6364 12.3334 17.3452 12.1388 17.0246 12.006C16.704 11.8732 16.3604 11.8048 16.0134 11.8048C15.3126 11.8048 14.6405 12.0832 14.1449 12.5788C13.6494 13.0743 13.371 13.7464 13.371 14.4472C13.371 15.148 13.6494 15.8201 14.1449 16.3157C14.6405 16.8112 15.3126 17.0896 16.0134 17.0896Z" fill="#F59E0B"/>
</svg>
