<svg width="141" height="54" viewBox="0 0 141 54" fill="none" xmlns="http://www.w3.org/2000/svg">
<g clip-path="url(#clip0_9823_1789)">
<path d="M19.1635 23.9135L18.2974 25.3347L19.1443 23.9135H19.1635Z" fill="#1F1F1F"/>
<path d="M32.2896 53.964L33.6375 51.3817C35.9239 47.0009 35.5656 41.688 32.7124 37.6624H32.5393L22.6064 53.964H0.854004L18.2887 25.3487L18.2972 25.3347L19.1633 23.9139H32.4127V32.4337L55.7827 18.8316L32.4127 5.22873V13.7493H19.1441L10.95 0H47.2905C57.5554 0 66.05 8.50072 66.0184 18.8908C66.0026 24.0677 63.9236 28.7524 60.5698 32.147C58.7225 34.0161 56.4896 35.4946 54.0008 36.448L54.6191 37.3497C57.2376 41.1665 57.6566 46.1035 55.7192 50.3161L54.0415 53.964" fill="#FFD67E"/>
</g>
<path d="M72.1667 36.8096L72.5797 34.2684H83.5067L83.0938 36.8096H72.1667ZM75.5338 17.1155L75.9467 14.5743H86.8738L86.4291 17.1155H75.5338ZM74.0091 25.9778L74.422 23.4684H84.7456L84.3009 25.9778H74.0091ZM74.4538 14.5743H77.1538L73.3103 36.8096H70.7056L74.4538 14.5743Z" fill="black"/>
<path d="M87.7689 22.1978H90.5324L92.9466 32.4261L98.5054 22.1978H101.396L92.1207 37.9531L87.7689 22.1978Z" fill="black"/>
<path d="M106.704 37.1272C105.497 37.1272 104.438 36.8625 103.528 36.3331C102.617 35.8037 101.908 35.0413 101.399 34.0461C100.891 33.0508 100.637 31.8543 100.637 30.4566C100.637 29.3131 100.838 28.2331 101.241 27.2166C101.664 26.179 102.236 25.2684 102.956 24.4849C103.697 23.6802 104.555 23.0449 105.529 22.579C106.524 22.1131 107.604 21.8802 108.769 21.8802C109.997 21.8802 111.045 22.1237 111.914 22.6108C112.803 23.0978 113.491 23.8178 113.978 24.7708C114.465 25.7025 114.709 26.8672 114.709 28.2649C114.709 28.5825 114.667 28.9319 114.582 29.3131C114.518 29.6943 114.444 29.9696 114.359 30.139H102.194V27.979H112.676L111.691 29.4402C111.797 29.1861 111.892 28.9213 111.977 28.6461C112.062 28.3496 112.104 28.0531 112.104 27.7566C112.104 26.9943 111.967 26.3484 111.691 25.819C111.437 25.2684 111.056 24.8449 110.548 24.5484C110.039 24.2519 109.394 24.1037 108.61 24.1037C107.805 24.1037 107.064 24.2731 106.387 24.6119C105.73 24.9296 105.158 25.3743 104.671 25.9461C104.184 26.5178 103.803 27.1849 103.528 27.9472C103.274 28.6884 103.147 29.4719 103.147 30.2978C103.147 31.1661 103.284 31.939 103.559 32.6166C103.835 33.2943 104.258 33.8237 104.83 34.2049C105.402 34.5649 106.132 34.7449 107.022 34.7449C108.017 34.7449 108.917 34.5013 109.722 34.0143C110.548 33.5061 111.225 32.8708 111.755 32.1084L113.756 33.4108C112.994 34.4908 112.019 35.3802 110.834 36.079C109.648 36.7778 108.271 37.1272 106.704 37.1272Z" fill="black"/>
<path d="M127.097 27.9155C127.182 27.259 127.171 26.6555 127.065 26.1049C126.959 25.5543 126.727 25.1096 126.367 24.7708C126.007 24.4319 125.477 24.2625 124.778 24.2625C124.058 24.2625 123.391 24.4213 122.777 24.739C122.184 25.0355 121.687 25.4484 121.284 25.9778C120.903 26.5072 120.659 27.1108 120.554 27.7884L118.965 36.8096H116.424L118.965 22.1978H121.475L121.125 24.3896C121.676 23.5849 122.322 22.9708 123.063 22.5472C123.804 22.1025 124.662 21.8802 125.636 21.8802C126.716 21.8802 127.563 22.1449 128.177 22.6743C128.812 23.2037 129.247 23.9025 129.479 24.7708C129.734 25.639 129.787 26.5813 129.638 27.5978L128.05 36.8096H125.572L127.097 27.9155Z" fill="black"/>
<path d="M133.03 22.1978H140.146L139.733 24.5802H132.586L133.03 22.1978ZM136.112 17.1155H138.685L135.254 36.8096H132.808L136.112 17.1155Z" fill="black"/>
<path d="M71.2738 48.3691L71.7964 47.3496H75.658L75.8619 48.3691H71.2738ZM74.2815 44.1379L72.2169 47.6809L72.0767 47.9103L70.2415 51.0455H69.0181L74.6766 41.6528L77.0853 51.0455H75.9256L75.1864 47.9868L75.1354 47.7319L74.2815 44.1379Z" fill="black"/>
<path d="M82.9688 51.4278H83.9756C83.9586 51.7167 84.0011 51.9801 84.1031 52.218C84.205 52.4559 84.3707 52.647 84.6001 52.7915C84.838 52.9359 85.1354 53.0081 85.4922 53.0081C85.8406 53.0081 86.1719 52.9232 86.4863 52.7532C86.8007 52.5833 87.0641 52.3369 87.2765 52.0141C87.4974 51.6997 87.6376 51.3344 87.697 50.918L88.6911 45.183H89.6979L88.7166 50.918C88.6316 51.5128 88.4362 52.0396 88.1304 52.4984C87.833 52.9572 87.4549 53.314 86.9961 53.5689C86.5458 53.8323 86.0403 53.964 85.4795 53.964C84.9357 53.964 84.4642 53.8535 84.0649 53.6326C83.674 53.4202 83.3809 53.1228 83.1855 52.7405C82.9901 52.3582 82.9178 51.9206 82.9688 51.4278ZM83.4149 48.1142C83.4998 47.5365 83.6995 47.0182 84.0139 46.5594C84.3367 46.0921 84.7318 45.7225 85.1991 45.4506C85.6749 45.1788 86.1889 45.0471 86.7412 45.0556C87.132 45.0556 87.4591 45.1405 87.7225 45.3104C87.9944 45.4804 88.2068 45.7098 88.3598 45.9986C88.5127 46.2875 88.6104 46.6146 88.6529 46.98C88.7039 47.3368 88.7039 47.7149 88.6529 48.1142C88.5934 48.5306 88.483 48.9256 88.3215 49.2995C88.1601 49.6648 87.9562 49.9877 87.7098 50.2681C87.4634 50.5484 87.1745 50.7693 86.8432 50.9308C86.5203 51.0837 86.1634 51.1602 85.7726 51.1602C85.2204 51.1602 84.7531 51.0242 84.3707 50.7524C83.9969 50.472 83.725 50.1024 83.5551 49.6436C83.3851 49.1763 83.3384 48.6665 83.4149 48.1142ZM84.4344 48.1142C84.3835 48.4881 84.409 48.8364 84.5109 49.1593C84.6129 49.4737 84.787 49.7285 85.0334 49.924C85.2883 50.1109 85.6027 50.2043 85.9765 50.2043C86.2314 50.2043 86.4778 50.1534 86.7157 50.0514C86.9621 49.941 87.1873 49.7923 87.3912 49.6053C87.5951 49.4099 87.765 49.1848 87.901 48.9299C88.0454 48.675 88.1431 48.4031 88.1941 48.1142C88.2366 47.8339 88.2323 47.5705 88.1813 47.3241C88.1304 47.0777 88.0411 46.8568 87.9137 46.6614C87.7863 46.4659 87.6248 46.313 87.4294 46.2026C87.2425 46.0836 87.0216 46.0199 86.7667 46.0114C86.3929 46.0029 86.0403 46.0921 85.7089 46.279C85.3775 46.4575 85.0972 46.7081 84.8678 47.031C84.6469 47.3538 84.5024 47.7149 84.4344 48.1142Z" fill="black"/>
<path d="M98.2716 51.1729C97.7873 51.1729 97.3625 51.0667 96.9971 50.8543C96.6318 50.6419 96.3472 50.336 96.1433 49.9367C95.9394 49.5374 95.8374 49.0573 95.8374 48.4966C95.8374 48.0378 95.9181 47.6045 96.0795 47.1966C96.2495 46.7803 96.4789 46.415 96.7677 46.1006C97.0651 45.7777 97.4092 45.5229 97.8001 45.3359C98.1994 45.149 98.6327 45.0556 99.1 45.0556C99.5928 45.0556 100.013 45.1533 100.362 45.3487C100.719 45.5441 100.995 45.833 101.19 46.2153C101.386 46.5891 101.483 47.0564 101.483 47.6172C101.483 47.7446 101.466 47.8848 101.432 48.0378C101.407 48.1907 101.377 48.3012 101.343 48.3691H96.4619V47.5025H100.668L100.272 48.0888C100.315 47.9868 100.353 47.8806 100.387 47.7701C100.421 47.6512 100.438 47.5322 100.438 47.4133C100.438 47.1074 100.383 46.8483 100.272 46.6359C100.171 46.415 100.018 46.245 99.8137 46.1261C99.6098 46.0071 99.3506 45.9477 99.0363 45.9477C98.7134 45.9477 98.416 46.0156 98.1442 46.1516C97.8808 46.279 97.6514 46.4575 97.456 46.6869C97.2605 46.9163 97.1076 47.1839 96.9971 47.4898C96.8952 47.7871 96.8442 48.1015 96.8442 48.4328C96.8442 48.7812 96.8994 49.0913 97.0099 49.3632C97.1203 49.6351 97.2903 49.8475 97.5197 50.0004C97.7491 50.1449 98.0422 50.2171 98.399 50.2171C98.7984 50.2171 99.1595 50.1194 99.4823 49.924C99.8137 49.7201 100.086 49.4652 100.298 49.1593L101.101 49.6818C100.795 50.1151 100.404 50.472 99.9284 50.7524C99.4526 51.0327 98.9003 51.1729 98.2716 51.1729Z" fill="black"/>
<path d="M111.806 47.477C111.84 47.2136 111.836 46.9715 111.794 46.7506C111.751 46.5297 111.658 46.3512 111.513 46.2153C111.369 46.0794 111.156 46.0114 110.876 46.0114C110.587 46.0114 110.319 46.0751 110.073 46.2026C109.835 46.3215 109.635 46.4872 109.474 46.6996C109.321 46.912 109.223 47.1542 109.181 47.426L108.544 51.0455H107.524L108.544 45.183H109.55L109.41 46.0624C109.631 45.7395 109.89 45.4931 110.188 45.3232C110.485 45.1448 110.829 45.0556 111.22 45.0556C111.653 45.0556 111.993 45.1618 112.24 45.3742C112.494 45.5866 112.669 45.867 112.762 46.2153C112.864 46.5637 112.885 46.9417 112.826 47.3496L112.189 51.0455H111.195L111.806 47.477Z" fill="black"/>
<path d="M120.419 48.1142C120.368 48.4711 120.393 48.8109 120.495 49.1338C120.606 49.4482 120.788 49.7031 121.043 49.8985C121.298 50.0939 121.617 50.1958 121.999 50.2043C122.449 50.2128 122.866 50.1109 123.248 49.8985C123.639 49.6861 123.945 49.4397 124.166 49.1593L123.987 50.421C123.724 50.6504 123.41 50.8331 123.044 50.969C122.687 51.0965 122.309 51.1602 121.91 51.1602C121.349 51.1602 120.865 51.02 120.457 50.7396C120.058 50.4592 119.765 50.0896 119.578 49.6308C119.391 49.1635 119.331 48.658 119.399 48.1142C119.476 47.545 119.671 47.031 119.986 46.5722C120.308 46.1133 120.712 45.748 121.196 45.4761C121.681 45.1957 122.212 45.0556 122.789 45.0556C123.163 45.0556 123.516 45.1193 123.847 45.2467C124.187 45.3742 124.467 45.5611 124.688 45.8075L124.51 47.0819C124.374 46.7591 124.145 46.4999 123.822 46.3045C123.507 46.1091 123.138 46.0114 122.713 46.0114C122.322 46.0114 121.961 46.1091 121.63 46.3045C121.307 46.4914 121.039 46.7421 120.827 47.0564C120.614 47.3708 120.478 47.7234 120.419 48.1142Z" fill="black"/>
<path d="M136.195 45.183L130.995 53.8365H129.835L132.053 50.1788L130.727 45.183H131.849L132.92 49.771L132.512 49.7073L135.035 45.183H136.195Z" fill="black"/>
<defs>
<clipPath id="clip0_9823_1789">
<rect width="65.164" height="53.964" fill="white" transform="translate(0.854004)"/>
</clipPath>
</defs>
</svg>
