<svg width="58" height="58" viewBox="0 0 58 58" fill="none" xmlns="http://www.w3.org/2000/svg">
<g clip-path="url(#clip0_9823_1877)">
<path d="M5.71447 35.3889L2.17862 39.308L0.0531289 43.3719C0.0182122 43.4387 -1.67513e-05 43.5129 1.15505e-08 43.5882V57.5333C9.74489e-09 57.5946 0.0120758 57.6553 0.0355377 57.7119C0.0589996 57.7685 0.093388 57.82 0.136739 57.8633C0.18009 57.9067 0.231554 57.9411 0.288192 57.9645C0.34483 57.988 0.405532 58 0.466832 58H9.39181C9.4978 58 9.60064 57.9639 9.68341 57.8977C9.76618 57.8315 9.82394 57.7391 9.8472 57.6357L12.3986 46.2986L11.897 41.6963L5.71447 35.3889Z" fill="#FFC3AA"/>
<path d="M13.1473 42.9713L12.398 46.2984H10.6149C7.97237 46.2984 5.83022 44.1562 5.83022 41.5137V40.5239C5.83022 40.4769 5.82096 40.4303 5.80297 40.3869C5.78498 40.3435 5.75861 40.304 5.72537 40.2707C5.69213 40.2375 5.65267 40.2111 5.60924 40.1932C5.56581 40.1752 5.51926 40.1659 5.47225 40.1659H5.04948C4.02917 40.1675 3.03088 39.8693 2.17871 39.3081L4.85464 34.192L9.10835 36.1468L13.1473 42.9713Z" fill="#FFA78E"/>
<path d="M50.5709 40.1569C50.5937 40.153 51.1697 40.1462 51.6151 40.1414C52.0529 40.1368 52.4887 40.0719 52.905 39.9359C55.8486 38.9743 57.9996 35.9255 57.9996 32.3135V29.3366C57.9996 27.1445 56.4716 25.3681 54.5172 25.3681L49.3633 25.3676L50.5709 40.1569Z" fill="#FFC3AA"/>
<path d="M34.9724 48.7356C13.388 48.7356 15.2368 29 15.2368 29C15.2368 29 11.2168 10.0733 33.8155 10.0733C53.0429 10.0733 51.887 25.5248 51.6471 27.7307C51.6287 27.8998 51.7711 28.0289 51.7711 28.0289L51.8068 38.9094C51.8068 41.9815 50.6709 44.9166 48.6715 47.0162L34.9724 48.7356Z" fill="#FFD9C3"/>
<path d="M53.8109 14.0145C53.824 10.0474 50.9144 6.11402 46.6226 5.57706C45.9893 5.49788 45.4857 5.07058 45.3535 4.50327C45.1165 3.48566 44.4895 2.56367 43.6895 1.82881C42.6343 0.856859 40.6903 0.107164 39.0023 0.107164L37.499 0H27.6379C25.9499 0 24.4783 0.621121 23.423 1.59307C22.6226 2.32827 22.0612 3.26477 21.8243 4.28294C21.6923 4.85036 21.1883 5.27675 20.5553 5.35707C16.3236 5.89391 12.941 9.24001 12.963 13.2647V25.3967C14.4658 25.3967 15.684 26.5018 15.684 27.8649V28.029C18.0745 27.2036 20.0043 25.1245 20.0043 22.8043V18.8209C20.0043 15.1596 23.2318 12.1843 27.2464 12.103C27.3351 12.1481 27.4224 12.191 27.5067 12.2298C31.6552 14.196 35.8028 14.1955 39.9512 12.2285C40.0361 12.1888 40.1218 12.1466 40.2074 12.103C41.4052 11.8952 42.4264 12.0819 43.154 12.7214C45.6911 13.7879 47.4508 16.1174 47.4508 18.8209V22.8043C47.4508 25.1245 49.3805 27.2036 51.7711 28.029V27.8931C51.7711 27.8253 51.7741 27.7579 51.7799 27.6913C51.7799 25.6465 52.7635 25.1112 54.2062 25.1083L53.8109 14.0145Z" fill="#E07A69"/>
<path d="M54.518 25.3683C53.0009 25.3707 51.772 26.5166 51.772 27.8937L51.7452 13.2641C51.7592 9.29745 48.4448 5.89221 44.1526 5.35537C43.52 5.27596 43.0159 4.84889 42.8841 4.28169C42.6472 3.26409 42.0859 2.32816 41.2853 1.59296C40.2304 0.620895 38.7588 0 37.0713 0H39.8185C41.5059 0 42.9775 0.620895 44.0325 1.59296C44.8331 2.32816 45.3944 3.26409 45.6313 4.28169C45.7631 4.84889 46.2673 5.27596 46.8998 5.35537C51.192 5.89221 54.5063 9.29745 54.4935 13.2641L54.518 25.3683Z" fill="#D16752"/>
<path d="M45.6154 10.9068C44.9793 11.5476 44.0598 12.2231 43.1543 12.7214C42.2545 12.3432 41.2578 12.1239 40.2076 12.103C40.7467 11.9174 41.2848 11.6922 41.8228 11.4378C42.719 11.0189 43.7413 10.3117 44.3715 9.67445C44.7122 9.33133 45.2666 9.32906 45.6096 9.66868C45.7746 9.83212 45.8678 10.0544 45.8689 10.2866C45.87 10.5188 45.7788 10.7419 45.6154 10.9068ZM21.8649 10.9068C22.5009 11.5476 23.4204 12.2232 24.3261 12.7215C25.2259 12.3434 26.2224 12.1239 27.2728 12.103C26.7337 11.9174 26.1956 11.6922 25.6576 11.4378C24.7613 11.0189 23.7391 10.3117 23.1089 9.67445C22.7682 9.33133 22.2138 9.32906 21.8708 9.66868C21.7891 9.74958 21.7241 9.84579 21.6796 9.95181C21.6351 10.0578 21.6119 10.1716 21.6113 10.2865C21.6108 10.4015 21.6329 10.5155 21.6764 10.6219C21.7199 10.7283 21.7839 10.8252 21.8649 10.9068Z" fill="#D16752"/>
<path d="M37.0343 18.5841L35.0398 13.4941C34.7095 12.6567 33.845 12.099 32.877 12.099H23.4643C22.4877 12.099 21.6174 12.6664 21.2936 13.5144L19.3564 18.5841H37.0343Z" fill="#999999"/>
<path d="M47.1179 20.8374L47.1171 23.4813H8.28125V20.5276C8.28125 19.2392 9.32684 18.1935 10.6153 18.1935H42.57L44.784 18.5034C46.0722 18.5034 47.1179 19.5491 47.1179 20.8374Z" fill="#F4F4F4"/>
<path d="M47.4518 23.4813V41.5139C47.4518 42.8034 46.4062 43.8479 45.1177 43.8479H42.1162C43.4046 43.8479 44.4503 42.8034 44.4503 41.5139V23.4813L45.7947 22.7579L47.4518 23.4813Z" fill="#686868"/>
<path d="M47.4518 20.5276V23.4813H44.4503V20.5276C44.4503 19.2392 43.4047 18.1935 42.1162 18.1935H45.1177C46.4062 18.1935 47.4518 19.2392 47.4518 20.5276Z" fill="#E5EAEA"/>
<path d="M2.67969 18.1311C2.67969 16.586 3.93235 15.3333 5.47751 15.3333H11.6561C11.6738 15.3333 11.6913 15.3334 11.7089 15.3338C13.1287 15.8712 13.7108 16.6035 13.7108 18.1311C13.7108 19.6763 13.2013 20.4404 11.6561 20.4404L5.47751 20.4843C3.93235 20.4843 2.67969 18.1311 2.67969 18.1311Z" fill="#FFD9C3"/>
<path d="M14.4536 18.1305C14.4536 18.9031 14.1408 19.6033 13.6343 20.1098C13.1278 20.6163 12.4288 20.929 11.6562 20.929L8.46609 21.4014L5.47694 20.929C3.93179 20.929 2.67969 19.6768 2.67969 18.1305H8.91152C9.68409 18.1305 10.3832 17.8178 10.8896 17.3113C11.3961 16.8048 11.7089 16.107 11.7089 15.3344C13.2293 15.3624 14.4536 16.6029 14.4536 18.1305Z" fill="#FFC3AA"/>
<path d="M2.25195 23.7267C2.25195 22.1816 3.50462 20.9289 5.04977 20.9289H14.1503C14.168 20.9289 14.1856 20.929 14.2031 20.9294C15.623 21.4668 16.205 22.1991 16.205 23.7267C16.205 25.2719 15.6955 26.036 14.1503 26.036L5.04977 26.0799C3.50462 26.0799 2.25195 23.7267 2.25195 23.7267Z" fill="#FFD9C3"/>
<path d="M16.9478 23.7262C16.9478 24.4988 16.635 25.1989 16.1286 25.7054C15.6221 26.2119 14.923 26.5247 14.1504 26.5247L9.32229 26.9042L5.04921 26.5247C3.50405 26.5247 2.25195 25.2725 2.25195 23.7262H11.4056C12.1782 23.7262 12.8773 23.4134 13.3838 22.9069C13.8902 22.4004 14.203 21.7026 14.203 20.9301C15.7236 20.958 16.9478 22.1986 16.9478 23.7262Z" fill="#FFC3AA"/>
<path d="M2.25195 34.9171C2.25195 33.372 3.50462 32.1193 5.04977 32.1193L9.22849 31.6581L15.4787 32.1193C15.4963 32.1193 16.9354 33.0795 16.9529 33.0798C18.3728 33.6172 19.4002 33.3895 19.4002 34.9171C19.4002 36.4623 18.8907 37.2264 17.3455 37.2264L5.04977 37.2703C3.50462 37.2703 2.25195 34.9171 2.25195 34.9171Z" fill="#FFD9C3"/>
<path d="M20.1429 34.9165C20.1429 35.6891 19.8301 36.3893 19.3237 36.8958C18.8172 37.4023 18.1181 37.715 17.3455 37.715H5.04921C3.50405 37.715 2.25195 36.4628 2.25195 34.9165H14.6009C15.3734 34.9165 16.0725 34.6038 16.579 34.0973C17.0855 33.5908 17.3982 32.893 17.3982 32.1204C18.9188 32.1484 20.1429 33.3889 20.1429 34.9165Z" fill="#FFC3AA"/>
<path d="M2.25195 29.3215C2.25195 27.7763 3.50462 26.5237 5.04977 26.5237H16.1785C16.1962 26.5237 16.2138 26.5238 16.2313 26.5241C17.6512 27.0615 18.2332 27.7939 18.2332 29.3215C18.2332 30.8667 17.7237 31.6307 16.1785 31.6307L5.04977 31.6747C3.50462 31.6747 2.25195 29.3215 2.25195 29.3215Z" fill="#FFD9C3"/>
<path d="M18.9759 29.3209C18.9759 30.0935 17.9058 32.1194 17.9058 32.1194L16.8063 32.8463L15.8629 32.1194H5.04921C3.50405 32.1194 2.25195 30.8672 2.25195 29.3209H13.4338C14.2064 29.3209 14.9055 29.0081 15.4119 28.5017C15.9184 27.9952 16.2312 27.2974 16.2312 26.5248C17.7518 26.5528 18.9759 27.7933 18.9759 29.3209Z" fill="#FFC3AA"/>
<path d="M47.5267 57.3897V54.4471C47.5267 53.4957 47.6844 52.5509 47.9934 51.651L48.7627 49.4108C49.6304 46.8844 49.5565 44.1297 48.5547 41.6535C47.865 39.9485 47.1152 38.1195 46.697 37.1766C46.3056 36.2938 45.0277 33.6933 45.0277 33.6933C44.7335 33.0794 44.5718 32.4104 44.5532 31.7298L44.4555 28.1685C44.4471 27.8618 44.322 27.5699 44.1056 27.3523C43.8893 27.1347 43.5981 27.0078 43.2915 26.9976L42.8596 26.9832C41.1534 26.9265 39.7254 28.2663 39.6733 29.9727L39.6171 31.8115C39.5831 32.9242 39.6291 34.0377 39.7546 35.1437L40.4993 41.7047C40.6201 42.7685 40.2543 43.8377 39.4844 44.5818C39.0801 44.9727 38.6179 45.2988 38.1142 45.5487L37.1513 46.0264C36.4411 46.3787 35.6694 46.5902 34.8787 46.649L34.8495 46.6511C34.3455 46.6889 33.8388 46.666 33.3403 46.5831C33.3403 46.5831 32.5739 46.6808 32.3552 46.6194C30.7097 46.1581 27.1996 45.3221 24.6499 44.6809C21.2059 43.7501 18.4149 38.252 17.6702 36.2905L16.4895 33.8517C16.2281 32.6808 15.8603 31.0157 14.8183 30.624C14.171 30.3803 13.4647 30.34 12.7938 30.5083C12.0656 30.6897 11.6014 31.403 11.7305 32.1422L12.8714 38.6708C12.9629 39.1946 13.1314 39.7019 13.3714 40.1763L16.5889 46.5375C17.2081 47.7616 18.2705 48.7037 19.5599 49.1719L32.8745 54.0067C33.569 54.2589 34.1691 54.7189 34.5932 55.324C35.0173 55.9292 35.2447 56.6502 35.2448 57.3892V57.3894C35.2448 57.5206 35.2969 57.6465 35.3897 57.7393C35.4825 57.8321 35.6083 57.8842 35.7396 57.8842H47.0317C47.0966 57.8843 47.161 57.8716 47.2211 57.8468C47.2811 57.822 47.3357 57.7855 47.3817 57.7396C47.4277 57.6937 47.4642 57.6392 47.489 57.5791C47.5139 57.5191 47.5267 57.4547 47.5267 57.3897Z" fill="#FFC3AA"/>
<path d="M33.3401 46.5832C31.7518 47.2227 30.0164 47.5752 28.1994 47.5752C23.7076 47.5752 19.4866 45.3824 16.9098 41.7098C15.2865 39.398 14.4287 36.68 14.4287 33.8524C14.4287 32.7402 14.5617 31.6596 14.815 30.6233C15.8583 31.0131 16.6915 31.907 16.953 33.0798L17.6695 36.2902C17.8125 36.9305 18.0699 37.5396 18.4291 38.0886L20.6196 41.4308C21.5861 42.906 23.0721 43.9636 24.7824 44.3938C27.3322 45.0345 31.0305 45.974 32.6759 46.4349C32.8955 46.4969 33.1173 46.5458 33.3401 46.5832Z" fill="#FFA78E"/>
<path d="M34.7825 24.5385C32.9209 23.2312 30.6504 22.4628 28.1993 22.4628C21.8831 22.4628 16.7627 27.5619 16.7627 33.8518C16.7627 36.2758 17.5239 38.5223 18.8202 40.3689C20.8869 43.3144 24.318 45.2411 28.1995 45.2411C34.5152 45.2411 39.6361 40.1413 39.6361 33.8524C39.6361 30.0037 37.7187 26.5995 34.7825 24.5385Z" fill="#999999"/>
<path d="M35.2377 33.8518C35.2377 30.7149 33.4414 29.0012 31.0336 26.9029C30.1353 26.5292 29.1718 26.3371 28.1988 26.3379C24.0861 26.3379 20.752 29.702 20.752 33.852C20.7507 34.8545 20.9492 35.8473 21.3358 36.7723C22.8982 39.2606 25.1126 40.6282 28.1988 40.6282C32.3116 40.6281 35.2377 38.0018 35.2377 33.8518Z" fill="#F4F4F4"/>
<path d="M35.6457 33.8524C35.6457 38.0022 32.3116 41.3656 28.1991 41.3656C25.1124 41.3656 22.4656 39.4715 21.3359 36.7722C22.2341 37.1462 23.1976 37.3382 24.1706 37.3371C28.2831 37.3371 31.6172 33.9726 31.6172 29.8228C31.6172 28.7876 31.4095 27.8004 31.0337 26.903C33.74 28.0267 35.6457 30.7155 35.6457 33.8524Z" fill="#E5EAEA"/>
</g>
<defs>
<clipPath id="clip0_9823_1877">
<rect width="58" height="58" fill="white"/>
</clipPath>
</defs>
</svg>
