<svg width="58" height="58" viewBox="0 0 58 58" fill="none" xmlns="http://www.w3.org/2000/svg">
<g clip-path="url(#clip0_9823_1828)">
<path d="M40.7234 0C40.4779 0 40.2425 0.0975086 40.0689 0.271075C39.8954 0.444641 39.7979 0.680048 39.7979 0.925508V4.01061H41.6489V0.925508C41.6489 0.680048 41.5514 0.444641 41.3778 0.271075C41.2042 0.0975086 40.9688 0 40.7234 0Z" fill="#5CA8D3"/>
<path d="M17.2766 10.1808L11.1064 16.351L17.2766 13.8829C19.3128 13.8829 20.9788 12.217 20.9788 10.1808H17.2766Z" fill="#FDA162"/>
<path d="M4.93652 10.1808H17.2769C17.2769 12.2169 15.611 13.883 13.5748 13.883L11.1067 16.351L8.63867 13.883C6.60244 13.883 4.93652 12.217 4.93652 10.1808Z" fill="#FDCE6E"/>
<path d="M17.2766 13.8829L11.1064 20.0531L17.2766 17.5851C19.3128 17.5851 20.9788 15.9192 20.9788 13.8829H17.2766Z" fill="#FDA162"/>
<path d="M4.93652 13.883H17.2769C17.2769 15.9191 15.611 17.5851 13.5748 17.5851L11.1067 20.0532L8.63867 17.5851C6.60244 17.5851 4.93652 15.9192 4.93652 13.883Z" fill="#FDCE6E"/>
<path d="M17.2766 17.5851L11.1064 23.7553L17.2766 21.2872C19.3128 21.2872 20.9788 19.6213 20.9788 17.5851H17.2766Z" fill="#FDA162"/>
<path d="M4.93652 17.5851H17.2769C17.2769 19.6212 15.611 21.2873 13.5748 21.2873L11.1067 23.7553L8.63867 21.2873C6.60244 21.2873 4.93652 19.6213 4.93652 17.5851Z" fill="#FDCE6E"/>
<path d="M17.2766 21.2872L11.1064 27.4574L17.2766 24.9894C19.3128 24.9894 20.9788 23.3235 20.9788 21.2872H17.2766Z" fill="#FDA162"/>
<path d="M4.93652 21.2872H17.2769C17.2769 23.3233 15.611 24.9894 13.5748 24.9894L11.1067 27.4574L8.63867 24.9894C6.60244 24.9894 4.93652 23.3233 4.93652 21.2872Z" fill="#FDCE6E"/>
<path d="M40.7236 2.77664V16.3511L51.8301 13.8831C51.83 7.74856 46.858 2.77664 40.7236 2.77664Z" fill="#66C6FE"/>
<path d="M48.1278 13.883L38.8725 16.351L29.6172 13.883C29.6172 7.74855 34.5891 2.77652 40.7236 2.77652C44.8132 2.77663 48.1278 7.74855 48.1278 13.883Z" fill="#99D9FF"/>
<path d="M28.3828 13.8829H49.3615V17.5851H28.3828V13.8829Z" fill="#5CA8D3"/>
<path d="M49.3623 13.8829H53.0644V17.5851H49.3623V13.8829Z" fill="#5389A9"/>
<path d="M21.2873 22.2128H4.62766C4.11642 22.2128 3.70215 21.7984 3.70215 21.2873C3.70215 20.7761 4.11642 20.3618 4.62766 20.3618H21.2873C21.7985 20.3618 22.2128 20.7761 22.2128 21.2873C22.2128 21.7984 21.7985 22.2128 21.2873 22.2128ZM21.2873 18.5106H4.62766C4.11642 18.5106 3.70215 18.0962 3.70215 17.5851C3.70215 17.074 4.11642 16.6596 4.62766 16.6596H21.2873C21.7985 16.6596 22.2128 17.074 22.2128 17.5851C22.2128 18.0962 21.7985 18.5106 21.2873 18.5106ZM21.2873 14.8085H4.62766C4.3822 14.8085 4.14679 14.711 3.97322 14.5374C3.79966 14.3638 3.70215 14.1284 3.70215 13.883C3.70215 13.6375 3.79966 13.4021 3.97322 13.2285C4.14679 13.055 4.3822 12.9575 4.62766 12.9575H21.2873C21.5327 12.9575 21.7681 13.055 21.9417 13.2285C22.1152 13.4021 22.2128 13.6375 22.2128 13.883C22.2128 14.1284 22.1152 14.3638 21.9417 14.5374C21.7681 14.711 21.5327 14.8085 21.2873 14.8085ZM21.2873 11.1064H4.62766C4.11642 11.1064 3.70215 10.6921 3.70215 10.1809C3.70215 9.66981 4.11642 9.25543 4.62766 9.25543H21.2873C21.7985 9.25543 22.2128 9.66981 22.2128 10.1809C22.2128 10.6921 21.7985 11.1064 21.2873 11.1064Z" fill="#FDFA7B"/>
<path d="M27.458 13.8829H29.309V27.4574H27.458V13.8829Z" fill="#5389A9"/>
<path d="M52.1387 13.8829H53.9897V27.4574H52.1387V13.8829Z" fill="#496A7E"/>
<path d="M51.2129 48.8466V57.0745C51.2129 57.32 51.3104 57.5554 51.484 57.7289C51.6575 57.9025 51.8929 58 52.1384 58C52.3839 58 52.6193 57.9025 52.7928 57.7289C52.9664 57.5554 53.0639 57.32 53.0639 57.0745V48.8466H51.2129Z" fill="#B1786B"/>
<path d="M4.93652 48.8467V57.0745C4.93652 57.5856 5.35079 58 5.86203 58C6.37327 58 6.78754 57.5856 6.78754 57.0745V48.8467H4.93652Z" fill="#CB9385"/>
<path d="M29.0003 27.4576L2.16016 32.3938V36.0568L47.8192 45.0427L52.1017 52.5305C53.0198 52.9922 54.0856 53.3724 55.8404 53.3724V32.3936L29.0003 27.4576Z" fill="#FDA162"/>
<path d="M56.162 24.9894V32.3936H52.4604L49.8447 29.0004L52.4604 24.9894H56.162Z" fill="#99D9FF"/>
<path d="M1.83789 24.9894H52.4608V32.3937H1.83789V24.9894Z" fill="#CCECFF"/>
<path d="M52.1019 36.0957H2.15918V53.3723C6.63266 53.3723 6.63266 50.9043 11.1062 50.9043C15.5798 50.9043 15.5797 53.3723 20.0533 53.3723C24.5269 53.3723 24.5268 50.9043 29.0004 50.9043C33.474 50.9043 33.4739 53.3723 37.9474 53.3723C42.4208 53.3723 42.4208 50.9043 46.8942 50.9043C49.6125 50.9043 50.6796 51.8154 52.1018 52.5305V36.0957H52.1019Z" fill="#FDCE6E"/>
<path d="M49.3249 43.1914C49.8361 43.1914 50.2504 42.777 50.2504 42.2659C50.2504 41.7548 49.8361 41.3404 49.3249 41.3404C48.8138 41.3404 48.3994 41.7548 48.3994 42.2659C48.3994 42.777 48.8138 43.1914 49.3249 43.1914Z" fill="#FDA162"/>
<path d="M45.6228 46.8936C46.1339 46.8936 46.5483 46.4792 46.5483 45.968C46.5483 45.4569 46.1339 45.0425 45.6228 45.0425C45.1116 45.0425 44.6973 45.4569 44.6973 45.968C44.6973 46.4792 45.1116 46.8936 45.6228 46.8936Z" fill="#FDA162"/>
<path d="M54.2981 14.8085H27.1491C26.9037 14.8085 26.6683 14.711 26.4947 14.5374C26.3211 14.3638 26.2236 14.1284 26.2236 13.883C26.2236 13.6375 26.3211 13.4021 26.4947 13.2285C26.6683 13.055 26.9037 12.9575 27.1491 12.9575H54.2981C54.5436 12.9575 54.779 13.055 54.9526 13.2285C55.1261 13.4021 55.2236 13.6375 55.2236 13.883C55.2237 14.0045 55.1997 14.1249 55.1532 14.2372C55.1067 14.3495 55.0386 14.4515 54.9526 14.5375C54.8667 14.6234 54.7646 14.6916 54.6523 14.7381C54.54 14.7846 54.4197 14.8085 54.2981 14.8085Z" fill="#5389A9"/>
</g>
<defs>
<clipPath id="clip0_9823_1828">
<rect width="58" height="58" fill="white"/>
</clipPath>
</defs>
</svg>
