<svg width="36" height="37" viewBox="0 0 36 37" fill="none" xmlns="http://www.w3.org/2000/svg">
<circle cx="18" cy="18.5" r="18" fill="#FFD67E"/>
<path d="M10.7231 23.9574H25.2772C25.7775 23.9574 26.1868 23.5481 26.1868 23.0478C26.1868 22.5475 25.7775 22.1382 25.2772 22.1382H10.7231C10.2228 22.1382 9.81348 22.5475 9.81348 23.0478C9.81348 23.5481 10.2228 23.9574 10.7231 23.9574ZM10.7231 19.4093H25.2772C25.7775 19.4093 26.1868 18.9999 26.1868 18.4996C26.1868 17.9993 25.7775 17.59 25.2772 17.59H10.7231C10.2228 17.59 9.81348 17.9993 9.81348 18.4996C9.81348 18.9999 10.2228 19.4093 10.7231 19.4093ZM9.81348 13.9515C9.81348 14.4518 10.2228 14.8611 10.7231 14.8611H25.2772C25.7775 14.8611 26.1868 14.4518 26.1868 13.9515C26.1868 13.4512 25.7775 13.0419 25.2772 13.0419H10.7231C10.2228 13.0419 9.81348 13.4512 9.81348 13.9515Z" fill="black"/>
</svg>
