<svg width="70" height="70" viewBox="0 0 70 70" fill="none" xmlns="http://www.w3.org/2000/svg">
<g clip-path="url(#clip0_9823_1860)">
<path d="M16.8969 0H53.1038C55.77 0 57.9314 2.1614 57.9314 4.82759V60.3448C57.9314 63.011 55.77 65.1724 53.1038 65.1724H16.8969C14.2307 65.1724 12.0693 63.011 12.0693 60.3448V4.82759C12.0693 2.1614 14.2307 0 16.8969 0Z" fill="#D4D4D4"/>
<path d="M12.5332 62.3806C12.9189 63.2133 13.5344 63.9184 14.3074 64.4129C15.0803 64.9075 15.9785 65.1709 16.8961 65.1722H53.103C55.7692 65.1722 57.9306 63.0108 57.9306 60.3446V10.1377C48.0896 36.3708 24.1279 54.7205 12.5332 62.3806Z" fill="#C7C7C7"/>
<path d="M34.9999 60.3448C44.9982 60.3448 53.1034 52.2396 53.1034 42.2414C53.1034 32.2431 44.9982 24.1379 34.9999 24.1379C25.0017 24.1379 16.8965 32.2431 16.8965 42.2414C16.8965 52.2396 25.0017 60.3448 34.9999 60.3448Z" fill="#737373"/>
<path d="M35.0003 56.7241C27.0018 56.7241 20.5176 50.2399 20.5176 42.2414C20.5176 34.2428 27.0018 27.7586 35.0003 27.7586C42.9989 27.7586 49.4831 34.2428 49.4831 42.2414C49.4745 50.2364 42.9954 56.7155 35.0003 56.7241ZM35.0003 30.1724C28.3348 30.1724 22.9314 35.5758 22.9314 42.2414C22.9314 48.9069 28.3348 54.3103 35.0003 54.3103C41.6659 54.3103 47.0693 48.9069 47.0693 42.2414C47.0621 35.5788 41.6629 30.1796 35.0003 30.1724Z" fill="#DE4C3C"/>
<path d="M35.0002 19.3103C38.9995 19.3103 42.2415 16.0683 42.2415 12.069C42.2415 8.06965 38.9995 4.82758 35.0002 4.82758C31.0009 4.82758 27.7588 8.06965 27.7588 12.069C27.7588 16.0683 31.0009 19.3103 35.0002 19.3103Z" fill="#666666"/>
<path d="M34.9997 14.4827C36.3328 14.4827 37.4135 13.402 37.4135 12.0689C37.4135 10.7358 36.3328 9.65515 34.9997 9.65515C33.6666 9.65515 32.5859 10.7358 32.5859 12.0689C32.5859 13.402 33.6666 14.4827 34.9997 14.4827Z" fill="#737373"/>
<path d="M15.6895 3.6207H18.1032V6.03449H15.6895V3.6207ZM51.8964 3.6207H54.3101V6.03449H51.8964V3.6207ZM15.6895 59.1379H18.1032V61.5517H15.6895V59.1379ZM51.8964 59.1379H54.3101V61.5517H51.8964V59.1379Z" fill="#737373"/>
<path d="M35.0004 47.0692C37.6666 47.0692 39.828 44.9079 39.828 42.2416C39.828 39.5754 37.6666 37.4141 35.0004 37.4141C32.3342 37.4141 30.1729 39.5754 30.1729 42.2416C30.1729 44.9079 32.3342 47.0692 35.0004 47.0692Z" fill="#DEDEDE"/>
<path d="M16.8965 65.1724H21.7241V70H16.8965V65.1724ZM48.2758 65.1724H53.1034V70H48.2758V65.1724Z" fill="#737373"/>
<path d="M6.03448 43.4483H1.2069C0.886808 43.4483 0.579829 43.3211 0.353492 43.0948C0.127155 42.8684 0 42.5615 0 42.2414C0 41.9213 0.127155 41.6143 0.353492 41.388C0.579829 41.1616 0.886808 41.0345 1.2069 41.0345H6.03448C6.35457 41.0345 6.66155 41.1616 6.88789 41.388C7.11422 41.6143 7.24138 41.9213 7.24138 42.2414C7.24138 42.5615 7.11422 42.8684 6.88789 43.0948C6.66155 43.3211 6.35457 43.4483 6.03448 43.4483ZM6.03448 35C5.71442 34.9999 5.40749 34.8727 5.18121 34.6464L1.56052 31.0257C1.34067 30.7981 1.21902 30.4932 1.22177 30.1768C1.22452 29.8603 1.35145 29.5576 1.57522 29.3338C1.79899 29.1101 2.10169 28.9831 2.41814 28.9804C2.73458 28.9776 3.03945 29.0993 3.26707 29.3191L6.88776 32.9398C7.05649 33.1086 7.1714 33.3236 7.21795 33.5577C7.26449 33.7918 7.24059 34.0344 7.14927 34.2549C7.05794 34.4754 6.90329 34.6639 6.70486 34.7965C6.50644 34.9291 6.27315 34.9999 6.03448 35ZM2.41379 55.5172C2.17513 55.5172 1.94184 55.4464 1.74341 55.3138C1.54499 55.1811 1.39034 54.9927 1.29901 54.7722C1.20768 54.5517 1.18378 54.309 1.23033 54.075C1.27688 53.8409 1.39178 53.6259 1.56052 53.4571L5.18121 49.8364C5.41143 49.614 5.72057 49.4922 6.04061 49.4977C6.36065 49.5033 6.66538 49.6357 6.88776 49.8659C7.10511 50.091 7.22659 50.3916 7.22659 50.7044C7.22659 51.0173 7.10511 51.3179 6.88776 51.5429L3.26707 55.1636C3.04078 55.39 2.73386 55.5172 2.41379 55.5172ZM68.7931 43.4483H63.9655C63.6454 43.4483 63.3384 43.3211 63.1121 43.0948C62.8858 42.8684 62.7586 42.5615 62.7586 42.2414C62.7586 41.9213 62.8858 41.6143 63.1121 41.388C63.3384 41.1616 63.6454 41.0345 63.9655 41.0345H68.7931C69.1132 41.0345 69.4202 41.1616 69.6465 41.388C69.8728 41.6143 70 41.9213 70 42.2414C70 42.5615 69.8728 42.8684 69.6465 43.0948C69.4202 43.3211 69.1132 43.4483 68.7931 43.4483ZM63.9655 35C63.7269 34.9999 63.4936 34.9291 63.2951 34.7965C63.0967 34.6639 62.9421 34.4754 62.8507 34.2549C62.7594 34.0344 62.7355 33.7918 62.7821 33.5577C62.8286 33.3236 62.9435 33.1086 63.1122 32.9398L66.7329 29.3191C66.9606 29.0993 67.2654 28.9776 67.5819 28.9804C67.8983 28.9831 68.201 29.1101 68.4248 29.3338C68.6486 29.5576 68.7755 29.8603 68.7782 30.1768C68.781 30.4932 68.6593 30.7981 68.4395 31.0257L64.8188 34.6464C64.5925 34.8727 64.2856 34.9999 63.9655 35ZM67.5862 55.5172C67.2661 55.5172 66.9592 55.39 66.7329 55.1636L63.1122 51.5429C62.8899 51.3127 62.768 51.0036 62.7736 50.6835C62.7791 50.3635 62.9116 50.0588 63.1418 49.8364C63.3668 49.619 63.6674 49.4975 63.9803 49.4975C64.2932 49.4975 64.5938 49.619 64.8188 49.8364L68.4395 53.4571C68.6082 53.6259 68.7231 53.8409 68.7697 54.075C68.8162 54.309 68.7923 54.5517 68.701 54.7722C68.6097 54.9927 68.455 55.1811 68.2566 55.3138C68.0582 55.4464 67.8249 55.5172 67.5862 55.5172Z" fill="#87CED9"/>
</g>
<defs>
<clipPath id="clip0_9823_1860">
<rect width="70" height="70" fill="white"/>
</clipPath>
</defs>
</svg>
