<svg width="100" height="101" viewBox="0 0 100 101" fill="none" xmlns="http://www.w3.org/2000/svg">
<rect y="0.5" width="100" height="100" rx="50" fill="#FFF5DE"/>
<g clip-path="url(#clip0_9823_2229)">
<path d="M29.5801 55.8789H33.5645V59.8633H36.5527V27.9883H42.5293V30.9789C41.6364 31.4956 41.0352 32.4604 41.0352 33.5664V35.5586C41.0352 36.1087 41.4811 36.5547 42.0312 36.5547H46.0156C46.5658 36.5547 47.0117 36.1087 47.0117 35.5586V33.5664C47.0117 32.4605 46.4105 31.4956 45.5176 30.9789V27.9883H54.4824V30.9789C53.5895 31.4956 52.9883 32.4604 52.9883 33.5664V35.5586C52.9883 36.1087 53.4342 36.5547 53.9844 36.5547H57.9688C58.5189 36.5547 58.9648 36.1087 58.9648 35.5586V33.5664C58.9648 32.4605 58.3636 31.4956 57.4707 30.9789V27.9883H63.4473V59.8633H66.4355V55.8789H70.4199V59.8633H73.4082V26.4941C73.4082 25.669 72.7392 25 71.9141 25H28.0859C27.2608 25 26.5918 25.669 26.5918 26.4941V59.8633H29.5801V55.8789ZM66.4355 27.9883H70.4199V31.9727H66.4355V27.9883ZM66.4355 34.9609H70.4199V38.9453H66.4355V34.9609ZM66.4355 41.9336H70.4199V45.918H66.4355V41.9336ZM66.4355 48.9062H70.4199V52.8906H66.4355V48.9062ZM29.5801 27.9883H33.5645V31.9727H29.5801V27.9883ZM29.5801 34.9609H33.5645V38.9453H29.5801V34.9609ZM29.5801 41.9336H33.5645V45.918H29.5801V41.9336ZM29.5801 48.9062H33.5645V52.8906H29.5801V48.9062Z" fill="#EAB308"/>
<path d="M39.541 49.4043H60.459V59.8633H39.541V49.4043ZM58.1654 62.8516H41.8346L38.6959 74.1044C38.4303 75.0569 39.1464 76 40.1351 76H59.8647C60.8534 76 61.5695 75.0568 61.3039 74.1044L58.1654 62.8516ZM73.5078 62.8516H61.2677L64.046 72.8125H74.0059C74.831 72.8125 75.5 72.1435 75.5 71.3184V64.8438C75.5 63.7435 74.6081 62.8516 73.5078 62.8516ZM26.4922 62.8516C25.3919 62.8516 24.5 63.7435 24.5 64.8438V71.3184C24.5 72.1435 25.169 72.8125 25.9941 72.8125H35.954L38.7323 62.8516H26.4922Z" fill="#EAB308"/>
</g>
<defs>
<clipPath id="clip0_9823_2229">
<rect width="51" height="51" fill="white" transform="translate(24.5 25)"/>
</clipPath>
</defs>
</svg>
