<svg width="32" height="33" viewBox="0 0 32 33" fill="none" xmlns="http://www.w3.org/2000/svg">
<rect x="0.15918" y="0.655762" width="31.7086" height="31.7086" rx="15.8543" fill="#FFF5DE"/>
<path d="M23.5622 13.1389V20.2847C23.5623 20.8624 23.3415 21.4183 22.9452 21.8386C22.5489 22.2589 22.0069 22.5119 21.4302 22.5458L21.2973 22.5496H10.7278C10.1501 22.5496 9.5942 22.3289 9.17387 21.9326C8.75355 21.5362 8.50056 20.9943 8.46667 20.4176L8.46289 20.2847V13.1389L15.5936 17.8929L15.6811 17.9428C15.7843 17.9932 15.8977 18.0194 16.0126 18.0194C16.1274 18.0194 16.2408 17.9932 16.344 17.9428L16.4316 17.8929L23.5622 13.1389Z" fill="#F59E0B"/>
<path d="M21.2973 10.4702C22.1127 10.4702 22.8276 10.9005 23.2262 11.5476L16.0125 16.3567L8.79883 11.5476C8.98817 11.2401 9.24825 10.9825 9.5574 10.796C9.86654 10.6095 10.2158 10.4996 10.576 10.4755L10.7278 10.4702H21.2973Z" fill="#F59E0B"/>
</svg>
