<svg width="19" height="19" viewBox="0 0 19 19" fill="none" xmlns="http://www.w3.org/2000/svg">
<path d="M15.9728 16.25L12.7156 12.9928M12.7156 12.9928C13.2727 12.4356 13.7147 11.7742 14.0162 11.0462C14.3178 10.3182 14.473 9.53798 14.473 8.75003C14.473 7.96208 14.3178 7.18185 14.0162 6.45387C13.7147 5.7259 13.2727 5.06445 12.7156 4.50728C12.1584 3.95012 11.4969 3.50815 10.769 3.20661C10.041 2.90508 9.26076 2.74988 8.47281 2.74988C7.68486 2.74988 6.90462 2.90508 6.17665 3.20661C5.44868 3.50815 4.78723 3.95012 4.23006 4.50728C3.10481 5.63253 2.47266 7.15869 2.47266 8.75003C2.47266 10.3414 3.10481 11.8675 4.23006 12.9928C5.35531 14.118 6.88147 14.7502 8.47281 14.7502C10.0642 14.7502 11.5903 14.118 12.7156 12.9928Z" stroke="black" stroke-linecap="round" stroke-linejoin="round"/>
</svg>
