<svg width="19" height="19" viewBox="0 0 19 19" fill="none" xmlns="http://www.w3.org/2000/svg">
<path d="M17.5616 4.69092L14.0487 15.8433C13.908 16.3063 13.6228 16.7122 13.2348 17.0015C12.8469 17.2909 12.3765 17.4485 11.8926 17.4514H11.8535C11.376 17.4557 10.9094 17.3091 10.5202 17.0325C10.1309 16.756 9.839 16.3635 9.68598 15.9112L8.38366 11.72L11.8999 8.20378C12.0031 8.09699 12.0601 7.95396 12.0588 7.8055C12.0576 7.65703 11.998 7.51502 11.893 7.41003C11.788 7.30505 11.646 7.2455 11.4976 7.24421C11.3491 7.24292 11.2061 7.29999 11.0993 7.40314L7.58302 10.9194L3.4105 9.62331L3.39182 9.61764C2.93597 9.45829 2.54188 9.15944 2.26546 8.76348C1.98904 8.36753 1.84432 7.89459 1.85184 7.41175C1.85936 6.92891 2.01874 6.4607 2.30735 6.07355C2.59597 5.6864 2.99918 5.39996 3.45976 5.25488L14.6371 1.73296C15.0483 1.5876 15.4925 1.56225 15.9176 1.65988C16.3428 1.75751 16.7314 1.97408 17.038 2.2843C17.3447 2.59453 17.5568 2.9856 17.6495 3.41184C17.7422 3.83809 17.7117 4.28135 17.5616 4.69092Z" fill="black"/>
</svg>
