<svg width="25" height="25" viewBox="0 0 25 25" fill="none" xmlns="http://www.w3.org/2000/svg">
<g clip-path="url(#clip0_9823_1724)">
<path d="M12.5 0.5C19.1343 0.5 24.5 5.86571 24.5 12.5C24.5 19.1343 19.1343 24.5 12.5 24.5C5.86571 24.5 0.5 19.1343 0.5 12.5C0.5 5.86571 5.86571 0.5 12.5 0.5ZM10.3057 18.8257C15.62 18.8257 18.5343 14.42 18.5343 10.5971V10.22C19.1 9.80857 19.5971 9.29429 19.9743 8.71143C19.46 8.93429 18.8943 9.08857 18.3114 9.17429C18.9114 8.81429 19.3743 8.24857 19.58 7.58C19.0143 7.90571 18.3971 8.14571 17.7457 8.28286C17.2143 7.71714 16.46 7.37429 15.6371 7.37429C14.0429 7.37429 12.74 8.67714 12.74 10.2714C12.74 10.4943 12.7571 10.7171 12.8257 10.9229C10.4257 10.8029 8.28286 9.65429 6.86 7.90571C6.62 8.33429 6.46571 8.83143 6.46571 9.36286C6.46571 10.3571 6.98 11.2486 7.75143 11.7629C7.27143 11.7629 6.82571 11.6257 6.44857 11.4029V11.4371C6.44857 12.8429 7.44286 14.0086 8.76286 14.2829C8.52286 14.3514 8.26571 14.3857 8.00857 14.3857C7.82 14.3857 7.64857 14.3686 7.46 14.3343C7.82 15.4829 8.9 16.3229 10.1514 16.34C9.15714 17.1114 7.90571 17.5743 6.55143 17.5743C6.31143 17.5743 6.08857 17.5743 5.86571 17.54C7.13429 18.3629 8.66 18.8429 10.2886 18.8429" fill="black"/>
</g>
<defs>
<clipPath id="clip0_9823_1724">
<rect width="24" height="24" fill="white" transform="translate(0.5 0.5)"/>
</clipPath>
</defs>
</svg>
