<svg width="25" height="25" viewBox="0 0 25 25" fill="none" xmlns="http://www.w3.org/2000/svg">
<g clip-path="url(#clip0_9823_1726)">
<path d="M14.4241 12.2996L11.7289 11.042C11.4937 10.9328 11.3005 11.0552 11.3005 11.3156V13.6844C11.3005 13.9448 11.4937 14.0672 11.7289 13.958L14.4229 12.7004C14.6593 12.59 14.6593 12.41 14.4241 12.2996ZM12.5005 0.97998C6.13807 0.97998 0.980469 6.13758 0.980469 12.5C0.980469 18.8624 6.13807 24.02 12.5005 24.02C18.8629 24.02 24.0205 18.8624 24.0205 12.5C24.0205 6.13758 18.8629 0.97998 12.5005 0.97998ZM12.5005 17.18C6.60367 17.18 6.50047 16.6484 6.50047 12.5C6.50047 8.35158 6.60367 7.81998 12.5005 7.81998C18.3973 7.81998 18.5005 8.35158 18.5005 12.5C18.5005 16.6484 18.3973 17.18 12.5005 17.18Z" fill="black"/>
</g>
<defs>
<clipPath id="clip0_9823_1726">
<rect width="24" height="24" fill="white" transform="translate(0.5 0.5)"/>
</clipPath>
</defs>
</svg>
